<svg width="325" height="148" viewBox="0 0 325 148" fill="none" xmlns="http://www.w3.org/2000/svg">
<rect width="325" height="148" rx="5" fill="#FDFBF1"/>
<path d="M18.5039 23.2031H31.9297V27.0039H23.1523V31.1875H31.0547V34.9883H23.1523V43H18.5039V23.2031ZM33.2159 23.2031H37.8644V31.6523H38.1378L44.7823 23.2031H50.3058L43.2238 32.0352L50.4152 43H44.837L39.8331 35.1523L37.8644 37.5859V43H33.2159V23.2031ZM55.6936 43H51.0452V23.2031H55.6936V43ZM62.0395 23.2031H78.6919V27.0039H72.6763V43H68.0552V27.0039H62.0395V23.2031ZM88.7008 37.8047H88.8648L93.3766 23.2031H98.5719L91.8727 43H85.693L78.9664 23.2031H84.1891L88.7008 37.8047Z" fill="#ED8000"/>
<path d="M18.608 57.504L20.96 64.416H21.056L23.432 57.504H24.824L21.752 66H20.264L17.216 57.504H18.608ZM27.8505 66.12C26.0505 66.132 24.8745 64.812 24.8745 62.856C24.8745 60.864 26.0505 59.556 27.8505 59.544C29.6385 59.556 30.8145 60.864 30.8265 62.856C30.8145 64.812 29.6385 66.132 27.8505 66.12ZM26.1225 62.856C26.1345 64.056 26.6865 65.088 27.8505 65.088C29.0025 65.088 29.5545 64.056 29.5545 62.856C29.5545 61.632 29.0025 60.588 27.8505 60.6C26.6865 60.588 26.1345 61.632 26.1225 62.856ZM32.0532 66V59.64H33.3012V66H32.0532ZM31.8852 57.912C31.8732 57.504 32.2332 57.168 32.6772 57.168C33.0972 57.168 33.4452 57.504 33.4452 57.912C33.4452 58.32 33.0972 58.656 32.6772 58.656C32.2332 58.656 31.8732 58.32 31.8852 57.912ZM37.5302 66.12C35.6702 66.132 34.5542 64.764 34.5542 62.856C34.5542 60.9 35.7182 59.556 37.5062 59.544C38.9582 59.556 40.0142 60.408 40.1462 61.704H38.9222C38.7902 61.104 38.3222 60.6 37.5302 60.6C36.4982 60.6 35.8142 61.452 35.8022 62.808C35.8142 64.2 36.4862 65.064 37.5302 65.064C38.2382 65.064 38.7662 64.668 38.9222 63.984H40.1462C40.0142 65.22 39.0302 66.132 37.5302 66.12ZM44.0821 66.12C42.2101 66.132 41.0581 64.836 41.0581 62.856C41.0581 60.9 42.2221 59.556 43.9861 59.544C45.4501 59.556 46.8301 60.456 46.8181 62.76V63.192H42.3061C42.3301 64.416 43.0381 65.1 44.1061 65.088C44.8021 65.1 45.2701 64.788 45.4741 64.392H46.7461C46.4581 65.436 45.4861 66.132 44.0821 66.12ZM42.3061 62.256H45.5941C45.5941 61.296 44.9701 60.576 44.0101 60.576C43.0141 60.576 42.3661 61.356 42.3061 62.256ZM53.6787 66.12C51.8787 66.132 50.7027 64.812 50.7027 62.856C50.7027 60.864 51.8787 59.556 53.6787 59.544C55.4667 59.556 56.6427 60.864 56.6547 62.856C56.6427 64.812 55.4667 66.132 53.6787 66.12ZM51.9507 62.856C51.9627 64.056 52.5147 65.088 53.6787 65.088C54.8307 65.088 55.3827 64.056 55.3827 62.856C55.3827 61.632 54.8307 60.588 53.6787 60.6C52.5147 60.588 51.9627 61.632 51.9507 62.856ZM60.9053 59.64V60.624H59.5373V66H58.2893V60.624H57.3053V59.64H58.2893V58.896C58.2893 57.768 59.0093 57.12 60.1853 57.12C60.4853 57.12 60.7973 57.156 61.0253 57.192V58.248C60.8093 58.2 60.6293 58.2 60.4973 58.2C59.8493 58.2 59.5373 58.464 59.5373 59.088V59.64H60.9053ZM65.0788 66V57.504H68.1988C69.9988 57.516 70.8748 58.488 70.8628 59.736C70.8748 60.804 70.2268 61.332 69.4468 61.536V61.608C70.2868 61.668 71.1988 62.4 71.1988 63.72C71.1988 65.016 70.3108 66 68.3428 66H65.0788ZM66.3748 64.896H68.1988C69.4348 64.896 69.9268 64.356 69.9268 63.648C69.9268 62.844 69.2788 62.184 68.2468 62.184H66.3748V64.896ZM66.3748 61.176H68.0788C68.9428 61.176 69.6028 60.66 69.5908 59.832C69.6028 59.148 69.1228 58.62 68.1028 58.608H66.3748V61.176ZM76.5266 63.36V59.64H77.7746V66H76.5506V64.896H76.4786C76.1906 65.58 75.5426 66.084 74.5826 66.072C73.3586 66.084 72.4946 65.256 72.4946 63.672V59.64H73.7426V63.528C73.7426 64.392 74.2706 64.944 75.0386 64.944C75.7226 64.944 76.5266 64.44 76.5266 63.36ZM82.8909 61.368C82.7709 60.864 82.3629 60.54 81.6669 60.528C80.9589 60.54 80.4549 60.912 80.4429 61.392C80.4549 61.764 80.7549 62.04 81.4509 62.208L82.4589 62.424C83.6349 62.7 84.1989 63.264 84.2109 64.152C84.1989 65.304 83.2269 66.132 81.5949 66.12C80.0709 66.132 79.1709 65.448 79.0029 64.272H80.2989C80.4069 64.836 80.8389 65.124 81.5949 65.136C82.3989 65.124 82.9269 64.788 82.9149 64.248C82.9269 63.84 82.6149 63.576 81.9309 63.432L80.9469 63.216C79.8069 62.952 79.2069 62.34 79.1949 61.464C79.2069 60.336 80.1909 59.556 81.6669 59.544C83.0829 59.556 83.9709 60.276 84.0909 61.368H82.8909ZM85.4321 66V59.64H86.6801V66H85.4321ZM85.2641 57.912C85.2521 57.504 85.6121 57.168 86.0561 57.168C86.4761 57.168 86.8241 57.504 86.8241 57.912C86.8241 58.32 86.4761 58.656 86.0561 58.656C85.6121 58.656 85.2521 58.32 85.2641 57.912ZM89.4691 62.232V66H88.2211V59.64H89.4211V60.672H89.4931C89.7931 60 90.4171 59.556 91.3651 59.544C92.6731 59.556 93.5371 60.384 93.5491 61.944V66H92.2771V62.112C92.2891 61.188 91.7851 60.636 90.9571 60.624C90.0811 60.636 89.4691 61.212 89.4691 62.232ZM97.8009 66.12C95.9289 66.132 94.7769 64.836 94.7769 62.856C94.7769 60.9 95.9409 59.556 97.7049 59.544C99.1689 59.556 100.549 60.456 100.537 62.76V63.192H96.0249C96.0489 64.416 96.7569 65.1 97.8249 65.088C98.5209 65.1 98.9889 64.788 99.1929 64.392H100.465C100.177 65.436 99.2049 66.132 97.8009 66.12ZM96.0249 62.256H99.3129C99.3129 61.296 98.6889 60.576 97.7289 60.576C96.7329 60.576 96.0849 61.356 96.0249 62.256ZM105.356 61.368C105.236 60.864 104.828 60.54 104.132 60.528C103.424 60.54 102.92 60.912 102.908 61.392C102.92 61.764 103.22 62.04 103.916 62.208L104.924 62.424C106.1 62.7 106.664 63.264 106.676 64.152C106.664 65.304 105.692 66.132 104.06 66.12C102.536 66.132 101.636 65.448 101.468 64.272H102.764C102.872 64.836 103.304 65.124 104.06 65.136C104.864 65.124 105.392 64.788 105.38 64.248C105.392 63.84 105.08 63.576 104.396 63.432L103.412 63.216C102.272 62.952 101.672 62.34 101.66 61.464C101.672 60.336 102.656 59.556 104.132 59.544C105.548 59.556 106.436 60.276 106.556 61.368H105.356ZM111.473 61.368C111.353 60.864 110.945 60.54 110.249 60.528C109.541 60.54 109.037 60.912 109.025 61.392C109.037 61.764 109.337 62.04 110.033 62.208L111.041 62.424C112.217 62.7 112.781 63.264 112.793 64.152C112.781 65.304 111.809 66.132 110.177 66.12C108.653 66.132 107.753 65.448 107.585 64.272H108.881C108.989 64.836 109.421 65.124 110.177 65.136C110.981 65.124 111.509 64.788 111.497 64.248C111.509 63.84 111.197 63.576 110.513 63.432L109.529 63.216C108.389 62.952 107.789 62.34 107.777 61.464C107.789 60.336 108.773 59.556 110.249 59.544C111.665 59.556 112.553 60.276 112.673 61.368H111.473ZM25.7773 73.6953H27.2188V74.9141H25.7773V78.3828H24.2773V70.4258H25.7773V73.6953ZM17.3164 71.5391H19.7422V70.4023H21.2305V71.5391H23.6445V72.7227H17.3164V71.5391ZM17.832 75.1602C17.832 74.7539 17.9434 74.3945 18.166 74.082C18.3926 73.7695 18.707 73.5273 19.1094 73.3555C19.5117 73.1836 19.9688 73.0977 20.4805 73.0977C20.9922 73.0977 21.4453 73.1836 21.8398 73.3555C22.2383 73.5273 22.5488 73.7695 22.7715 74.082C22.9941 74.3945 23.1055 74.7539 23.1055 75.1602C23.1055 75.5664 22.9941 75.9238 22.7715 76.2324C22.5527 76.5371 22.2441 76.7754 21.8457 76.9473C21.4473 77.1152 20.9922 77.1992 20.4805 77.1992C19.9648 77.1992 19.5059 77.1152 19.1035 76.9473C18.7051 76.7754 18.3926 76.5352 18.166 76.2266C17.9434 75.918 17.832 75.5625 17.832 75.1602ZM18.8633 77.7734H20.3516V79.6953H26.1641V80.8906H18.8633V77.7734ZM19.2969 75.1602C19.293 75.4492 19.3984 75.6719 19.6133 75.8281C19.8281 75.9844 20.1172 76.0625 20.4805 76.0625C20.8477 76.0625 21.1406 75.9844 21.3594 75.8281C21.5781 75.6719 21.6875 75.4492 21.6875 75.1602C21.6875 74.8711 21.5781 74.6465 21.3594 74.4863C21.1406 74.3223 20.8477 74.2383 20.4805 74.2344C20.1172 74.2383 19.8281 74.3223 19.6133 74.4863C19.3984 74.6465 19.293 74.8711 19.2969 75.1602ZM36.2891 71.7148V72.0488C36.2891 72.4824 36.2734 72.8965 36.2422 73.291C36.2148 73.6816 36.1582 74.1016 36.0723 74.5508H37.4492V75.7461H33.3008V77.2812H36.3008V81.0781H34.8008V78.4531H28.6719V77.2812H31.8008V75.7461H27.6875V74.5508H34.5605C34.6504 74.1016 34.7109 73.6855 34.7422 73.3027C34.7734 72.9199 34.793 72.5078 34.8008 72.0664H28.8828V70.8828H36.2891V71.7148ZM47.0469 76.5664H45.5586V75.5234H43.1562V74.3281H45.5586V73.3086H43.2676C42.5996 74.9961 41.0898 76.1602 38.7383 76.8008L38.1523 75.6172C39.3438 75.3047 40.2578 74.8691 40.8945 74.3105C41.5352 73.748 41.9102 73.0898 42.0195 72.3359H38.7266V71.1406H43.6484C43.6484 71.5 43.623 71.832 43.5723 72.1367H45.5586V70.4258H47.0469V76.5664ZM39.8516 78.8516C39.8516 78.418 40.002 78.0391 40.3027 77.7148C40.6035 77.3906 41.0293 77.1406 41.5801 76.9648C42.1309 76.7852 42.7695 76.6953 43.4961 76.6953C44.2148 76.6953 44.8477 76.7852 45.3945 76.9648C45.9414 77.1406 46.3672 77.3906 46.6719 77.7148C46.9766 78.0391 47.1289 78.418 47.1289 78.8516C47.1289 79.2891 46.9766 79.6719 46.6719 80C46.3672 80.332 45.9395 80.5859 45.3887 80.7617C44.8418 80.9414 44.2109 81.0312 43.4961 81.0312C42.7695 81.0312 42.1309 80.9414 41.5801 80.7617C41.0293 80.5859 40.6035 80.334 40.3027 80.0059C40.002 79.6777 39.8516 79.293 39.8516 78.8516ZM41.3398 78.8516C41.3398 79.1797 41.5273 79.4277 41.9023 79.5957C42.2773 79.7637 42.8086 79.8477 43.4961 79.8477C44.168 79.8477 44.6895 79.7637 45.0605 79.5957C45.4355 79.4238 45.625 79.1758 45.6289 78.8516C45.625 78.5273 45.4355 78.2812 45.0605 78.1133C44.6895 77.9414 44.168 77.8594 43.4961 77.8672C42.8125 77.8594 42.2812 77.9414 41.9023 78.1133C41.5273 78.2812 41.3398 78.5273 41.3398 78.8516ZM57.6523 81.0781H56.2344V70.4141H57.6523V81.0781ZM48.207 77.9609C48.9453 77.5078 49.4883 76.8613 49.8359 76.0215C50.1875 75.1777 50.3633 74.2617 50.3633 73.2734V72.6992H48.6172V71.5039H53.4219V72.6992H51.8047V73.2734C51.8008 74.2383 51.9668 75.1172 52.3027 75.9102C52.6426 76.7031 53.1797 77.3086 53.9141 77.7266L53.0352 78.8281C52.1367 78.2969 51.4902 77.4102 51.0957 76.168C50.9082 76.8164 50.6484 77.3887 50.3164 77.8848C49.9844 78.3809 49.582 78.7734 49.1094 79.0625L48.207 77.9609ZM52.6602 74.0703H54.0664V70.5898H55.4727V80.5859H54.0664V75.2773H52.6602V74.0703ZM67.7305 78.0898H66.2305V70.4258H67.7305V78.0898ZM58.9648 73.7891C58.9648 73.2773 59.0938 72.8164 59.3516 72.4062C59.6094 71.9961 59.959 71.6777 60.4004 71.4512C60.8457 71.2207 61.3398 71.1055 61.8828 71.1055C62.4219 71.1055 62.9141 71.2207 63.3594 71.4512C63.8047 71.6777 64.1562 71.9961 64.4141 72.4062C64.6719 72.8164 64.8008 73.2773 64.8008 73.7891C64.8008 74.3086 64.6719 74.7754 64.4141 75.1895C64.1562 75.5996 63.8047 75.9199 63.3594 76.1504C62.9141 76.3809 62.4219 76.4961 61.8828 76.4961C61.3398 76.4961 60.8457 76.3809 60.4004 76.1504C59.9551 75.9199 59.6035 75.5996 59.3457 75.1895C59.0918 74.7754 58.9648 74.3086 58.9648 73.7891ZM60.4297 73.7891C60.4258 74.0781 60.4863 74.3301 60.6113 74.5449C60.7363 74.7559 60.9082 74.918 61.127 75.0312C61.3496 75.1406 61.6016 75.1953 61.8828 75.1953C62.1562 75.1953 62.4004 75.1406 62.6152 75.0312C62.834 74.918 63.0059 74.7559 63.1309 74.5449C63.2598 74.3301 63.3242 74.0781 63.3242 73.7891C63.3242 73.5078 63.2598 73.2617 63.1309 73.0508C63.0059 72.8398 62.834 72.6797 62.6152 72.5703C62.3965 72.457 62.1523 72.4023 61.8828 72.4062C61.6016 72.4023 61.3496 72.457 61.127 72.5703C60.9082 72.6797 60.7363 72.8398 60.6113 73.0508C60.4863 73.2617 60.4258 73.5078 60.4297 73.7891ZM60.582 77.3164H62.0938V79.6953H68.0117V80.8906H60.582V77.3164ZM75.125 72.5117H69.1953V71.3398H71.4922V70.3203H72.9805V71.3398H75.125V72.5117ZM69.7227 74.7617C69.7188 74.3828 69.8223 74.0469 70.0332 73.7539C70.2441 73.457 70.5391 73.2266 70.918 73.0625C71.3008 72.8984 71.7344 72.8164 72.2188 72.8164C72.7031 72.8164 73.1367 72.8984 73.5195 73.0625C73.9023 73.2266 74.2012 73.457 74.416 73.7539C74.6348 74.0469 74.7461 74.3828 74.75 74.7617C74.7461 75.1406 74.6348 75.4766 74.416 75.7695C74.2012 76.0625 73.9023 76.291 73.5195 76.4551C73.1367 76.6152 72.7031 76.6953 72.2188 76.6953C71.7305 76.6953 71.2969 76.6152 70.918 76.4551C70.5391 76.291 70.2441 76.0625 70.0332 75.7695C69.8223 75.4766 69.7188 75.1406 69.7227 74.7617ZM70.9648 77.1641H72.4648V77.9492H76.6836V77.1641H78.1602V80.9609H70.9648V77.1641ZM71.1172 74.7617C71.1133 75.0234 71.209 75.2305 71.4043 75.3828C71.6035 75.5312 71.8691 75.6055 72.2012 75.6055C72.5488 75.6055 72.8281 75.5312 73.0391 75.3828C73.25 75.2344 73.3555 75.0273 73.3555 74.7617C73.3555 74.5 73.252 74.2969 73.0449 74.1523C72.8379 74.0078 72.5625 73.9336 72.2188 73.9297C71.875 73.9336 71.6035 74.0078 71.4043 74.1523C71.209 74.2969 71.1133 74.5 71.1172 74.7617ZM76.6836 79.8125V79.0625H72.4648V79.8125H76.6836ZM75.2188 74.7969H76.6719V73.8945H75.2422V72.6875H76.6719V70.4141H78.1602V76.7656H76.6719V75.9922H75.2188V74.7969ZM88.5078 81.0781H87.0195V70.4141H88.5078V81.0781ZM79.5898 78.0664C79.832 78.0664 80.0156 78.0645 80.1406 78.0605C80.9102 78.0605 81.6328 78.0527 82.3086 78.0371V77.1348C81.9219 77.0645 81.582 76.9395 81.2891 76.7598C81 76.5801 80.7773 76.3574 80.6211 76.0918C80.4648 75.8223 80.3867 75.5234 80.3867 75.1953C80.3867 74.8047 80.498 74.457 80.7207 74.1523C80.9434 73.8477 81.2539 73.6113 81.6523 73.4434C82.0547 73.2754 82.5156 73.1914 83.0352 73.1914C83.5586 73.1914 84.0234 73.2754 84.4297 73.4434C84.8359 73.6113 85.1523 73.8477 85.3789 74.1523C85.6055 74.457 85.7188 74.8047 85.7188 75.1953C85.7188 75.5234 85.6387 75.8223 85.4785 76.0918C85.3223 76.3574 85.0977 76.5801 84.8047 76.7598C84.5156 76.9395 84.1758 77.0645 83.7852 77.1348V77.9844C84.75 77.9414 85.6328 77.8672 86.4336 77.7617L86.5391 78.8633C85.5625 79.0312 84.5527 79.1445 83.5098 79.2031C82.4668 79.2578 81.3633 79.2852 80.1992 79.2852H79.7891L79.5898 78.0664ZM79.8008 71.5977H82.3086V70.4609H83.7969V71.5977H86.2812V72.7695H79.8008V71.5977ZM81.8047 75.1953C81.8008 75.4688 81.9121 75.6816 82.1387 75.834C82.3652 75.9863 82.6641 76.0625 83.0352 76.0625C83.418 76.0625 83.7227 75.9883 83.9492 75.8398C84.1758 75.6875 84.2891 75.4727 84.2891 75.1953C84.2891 74.9258 84.1758 74.7148 83.9492 74.5625C83.7227 74.4102 83.418 74.332 83.0352 74.3281C82.6641 74.332 82.3652 74.4102 82.1387 74.5625C81.9121 74.7148 81.8008 74.9258 81.8047 75.1953ZM97.4844 77.0586C98.2617 77.0586 98.9355 77.1387 99.5059 77.2988C100.076 77.4551 100.516 77.6855 100.824 77.9902C101.133 78.291 101.289 78.6523 101.293 79.0742C101.289 79.4883 101.133 79.8457 100.824 80.1465C100.516 80.4512 100.074 80.6816 99.5 80.8379C98.9297 80.998 98.2578 81.0781 97.4844 81.0781C96.7148 81.0781 96.043 80.998 95.4688 80.8379C94.8984 80.6816 94.459 80.4512 94.1504 80.1465C93.8418 79.8457 93.6875 79.4883 93.6875 79.0742C93.6875 78.6523 93.8418 78.291 94.1504 77.9902C94.459 77.6855 94.8984 77.4551 95.4688 77.2988C96.043 77.1387 96.7148 77.0586 97.4844 77.0586ZM92.7031 75.1719H96.3359V73.3086H97.8125V75.1719H102.383V76.3789H92.7031V75.1719ZM93.793 70.8945H101.234V71.7617V72.0723C101.234 72.541 101.215 72.9746 101.176 73.373C101.137 73.7715 101.055 74.1875 100.93 74.6211L99.4648 74.4805C99.5742 74.043 99.6465 73.6445 99.6816 73.2852C99.7168 72.9219 99.7383 72.5156 99.7461 72.0664H93.793V70.8945ZM95.1758 79.0742C95.1719 79.3594 95.3691 79.5762 95.7676 79.7246C96.1699 79.8691 96.7422 79.9414 97.4844 79.9414C98.2266 79.9414 98.7988 79.8691 99.2012 79.7246C99.6035 79.5762 99.8047 79.3594 99.8047 79.0742C99.8047 78.7812 99.6055 78.5586 99.207 78.4062C98.8125 78.25 98.252 78.1719 97.5254 78.1719C96.7676 78.1719 96.1855 78.248 95.7793 78.4004C95.373 78.5527 95.1719 78.7773 95.1758 79.0742ZM107.141 71.9258C107.137 72.3828 107.225 72.8203 107.404 73.2383C107.584 73.6523 107.861 74.0215 108.236 74.3457C108.611 74.666 109.082 74.9102 109.648 75.0781L108.898 76.25C108.305 76.0625 107.795 75.7871 107.369 75.4238C106.943 75.0605 106.609 74.6289 106.367 74.1289C106.121 74.668 105.779 75.1348 105.342 75.5293C104.904 75.9238 104.379 76.2188 103.766 76.4141L103.016 75.2422C103.586 75.0586 104.062 74.7949 104.445 74.4512C104.832 74.1074 105.117 73.7188 105.301 73.2852C105.488 72.8477 105.582 72.3945 105.582 71.9258V70.9062H107.141V71.9258ZM104.645 77.2344H111.98V81.0781H110.48V78.4297H104.645V77.2344ZM110.48 70.4141H111.98V76.7773H110.48V70.4141ZM118.051 71.5156L120.008 75.1719H120.09L122.035 71.5156H124.016L120.922 76.9766V80H119.164V76.9766L116.07 71.5156H118.051ZM126.441 80.1289C125.809 80.1289 125.256 79.9922 124.783 79.7188C124.314 79.4414 123.953 79.0547 123.699 78.5586C123.449 78.0625 123.324 77.4883 123.324 76.8359C123.324 76.1836 123.449 75.6113 123.699 75.1191C123.953 74.623 124.314 74.2383 124.783 73.9648C125.256 73.6914 125.809 73.5547 126.441 73.5547C127.074 73.5547 127.625 73.6914 128.094 73.9648C128.566 74.2383 128.93 74.623 129.184 75.1191C129.441 75.6113 129.57 76.1836 129.57 76.8359C129.57 77.4883 129.441 78.0625 129.184 78.5586C128.93 79.0547 128.566 79.4414 128.094 79.7188C127.625 79.9922 127.074 80.1289 126.441 80.1289ZM125.082 76.8359C125.082 77.2148 125.133 77.5508 125.234 77.8438C125.34 78.1328 125.496 78.3613 125.703 78.5293C125.91 78.6973 126.16 78.7812 126.453 78.7812C126.738 78.7812 126.982 78.6992 127.186 78.5352C127.389 78.3672 127.541 78.1387 127.643 77.8496C127.748 77.5605 127.801 77.2305 127.801 76.8594C127.801 76.4766 127.75 76.1367 127.648 75.8398C127.547 75.5391 127.395 75.3047 127.191 75.1367C126.988 74.9648 126.742 74.8789 126.453 74.8789C126.16 74.8789 125.91 74.9629 125.703 75.1309C125.496 75.2988 125.34 75.5312 125.234 75.8281C125.133 76.1211 125.082 76.457 125.082 76.8359ZM134.738 73.6367H136.473V80H134.809V78.8516H134.738C134.59 79.2305 134.348 79.5312 134.012 79.7539C133.676 79.9727 133.273 80.082 132.805 80.082C132.383 80.082 132.01 79.9863 131.686 79.7949C131.361 79.5996 131.109 79.3223 130.93 78.9629C130.75 78.6035 130.66 78.1797 130.66 77.6914V73.6367H132.395V77.3867C132.395 77.7617 132.494 78.0605 132.693 78.2832C132.896 78.502 133.168 78.6133 133.508 78.6172C133.727 78.6133 133.93 78.5605 134.117 78.459C134.305 78.3574 134.455 78.207 134.568 78.0078C134.682 77.8086 134.738 77.5703 134.738 77.293V73.6367ZM141.172 74.9375H139.977V78.043C139.973 78.2812 140.021 78.4473 140.123 78.541C140.229 78.6309 140.379 78.6797 140.574 78.6875C140.754 78.6875 140.984 78.6758 141.266 78.6523V80.0234C141.008 80.0625 140.693 80.082 140.322 80.082C139.674 80.082 139.164 79.9336 138.793 79.6367C138.422 79.3359 138.238 78.8867 138.242 78.2891V74.9375H137.363V73.6367H138.242V72.1133H139.977V73.6367H141.172V74.9375ZM146.34 73.6367H148.074V80H146.41V78.8516H146.34C146.191 79.2305 145.949 79.5312 145.613 79.7539C145.277 79.9727 144.875 80.082 144.406 80.082C143.984 80.082 143.611 79.9863 143.287 79.7949C142.963 79.5996 142.711 79.3223 142.531 78.9629C142.352 78.6035 142.262 78.1797 142.262 77.6914V73.6367H143.996V77.3867C143.996 77.7617 144.096 78.0605 144.295 78.2832C144.498 78.502 144.77 78.6133 145.109 78.6172C145.328 78.6133 145.531 78.5605 145.719 78.459C145.906 78.3574 146.057 78.207 146.17 78.0078C146.283 77.8086 146.34 77.5703 146.34 77.293V73.6367ZM149.457 71.5156H151.191V74.7031H151.238C151.387 74.3828 151.605 74.1113 151.895 73.8887C152.184 73.666 152.57 73.5547 153.055 73.5547C153.535 73.5547 153.971 73.6797 154.361 73.9297C154.752 74.1758 155.062 74.5449 155.293 75.0371C155.527 75.5254 155.645 76.1211 155.645 76.8242C155.645 77.5117 155.531 78.1035 155.305 78.5996C155.078 79.0918 154.77 79.4668 154.379 79.7246C153.988 79.9785 153.547 80.1055 153.055 80.1055C152.582 80.1055 152.199 79.998 151.906 79.7832C151.613 79.5645 151.391 79.2969 151.238 78.9805H151.168V80H149.457V71.5156ZM151.156 76.7949C151.156 77.1816 151.209 77.5195 151.314 77.8086C151.42 78.0977 151.574 78.3223 151.777 78.4824C151.98 78.6426 152.223 78.7227 152.504 78.7227C152.934 78.7188 153.268 78.5449 153.506 78.2012C153.744 77.8574 153.863 77.4004 153.863 76.8301C153.863 76.2559 153.746 75.7969 153.512 75.4531C153.277 75.1094 152.941 74.9375 152.504 74.9375C152.082 74.9375 151.752 75.1055 151.514 75.4414C151.275 75.7734 151.156 76.2246 151.156 76.7949ZM159.641 80.1289C158.996 80.1289 158.438 79.9961 157.965 79.7305C157.492 79.4609 157.129 79.0801 156.875 78.5879C156.625 78.0957 156.5 77.5156 156.5 76.8477C156.5 76.1992 156.625 75.627 156.875 75.1309C157.129 74.6309 157.488 74.2441 157.953 73.9707C158.418 73.6934 158.957 73.5547 159.57 73.5547C160.141 73.5547 160.65 73.6758 161.1 73.918C161.553 74.1562 161.908 74.5176 162.166 75.002C162.428 75.4863 162.559 76.0781 162.559 76.7773V77.2695H158.211C158.211 77.5859 158.27 77.8613 158.387 78.0957C158.508 78.3301 158.678 78.5117 158.896 78.6406C159.119 78.7656 159.379 78.8281 159.676 78.8281C159.965 78.8242 160.213 78.7656 160.42 78.6523C160.627 78.5352 160.773 78.3789 160.859 78.1836H162.512C162.43 78.5781 162.262 78.9219 162.008 79.2148C161.754 79.5039 161.424 79.7285 161.018 79.8887C160.615 80.0488 160.156 80.1289 159.641 80.1289ZM160.918 76.1797C160.918 75.9258 160.861 75.6973 160.748 75.4941C160.639 75.291 160.484 75.1348 160.285 75.0254C160.086 74.9121 159.859 74.8555 159.605 74.8555C159.348 74.8555 159.113 74.9141 158.902 75.0312C158.695 75.1484 158.531 75.3086 158.41 75.5117C158.289 75.7148 158.223 75.9375 158.211 76.1797H160.918Z" fill="#ED8000"/>
<path d="M281.498 130.549L278.074 132.057C277.778 132.189 277.738 132.587 277.992 132.78L281.019 134.991C281.284 135.184 281.651 135.021 281.681 134.695L282.089 130.977C282.12 130.651 281.793 130.417 281.498 130.549Z" fill="#F08F7B"/>
<path d="M283.393 137.978C283.922 137.978 284.351 137.549 284.351 137.02C284.351 136.491 283.922 136.062 283.393 136.062C282.864 136.062 282.435 136.491 282.435 137.02C282.435 137.549 282.864 137.978 283.393 137.978Z" stroke="#8992CE" stroke-width="0.3" stroke-miterlimit="10"/>
<path d="M172.25 133.125C172.94 133.125 173.5 132.565 173.5 131.875C173.5 131.185 172.94 130.625 172.25 130.625C171.56 130.625 171 131.185 171 131.875C171 132.565 171.56 133.125 172.25 133.125Z" stroke="#F9C98B" stroke-width="0.3" stroke-miterlimit="10"/>
<path d="M171.625 126.25C171.97 126.25 172.25 125.97 172.25 125.625C172.25 125.28 171.97 125 171.625 125C171.28 125 171 125.28 171 125.625C171 125.97 171.28 126.25 171.625 126.25Z" fill="#8992CE"/>
<path d="M175.062 128.75C175.58 128.75 176 128.33 176 127.812C176 127.295 175.58 126.875 175.062 126.875C174.545 126.875 174.125 127.295 174.125 127.812C174.125 128.33 174.545 128.75 175.062 128.75Z" fill="#F08F7B"/>
<path d="M253.028 82.1631H181.106C179.722 82.1631 178.661 81.1768 178.661 80.007V33.2967C178.661 32.1269 179.722 31.1406 181.106 31.1406H252.999C254.383 31.1406 255.444 32.1269 255.444 33.2967V80.007C255.444 81.1785 254.381 82.1631 253.028 82.1631Z" fill="white" stroke="#D9D9D9" stroke-width="0.5"/>
<path d="M230.017 60.7289L226.371 82.0446H199.439L195.738 60.6184C208.472 55.3999 218.388 55.1514 230.017 60.7289Z" fill="#2B3C27"/>
<path d="M195.738 60.6445C195.738 60.6445 193.943 61.1415 193.197 66.1391C192.451 71.1367 191.291 82.0155 191.291 82.0155L199.439 82.0707L195.738 60.6445Z" fill="#2B3C27"/>
<path d="M212.863 79.4459L207.974 57.9922H217.531L212.863 79.4459Z" fill="white"/>
<mask id="mask0_186_20872" style="mask-type:luminance" maskUnits="userSpaceOnUse" x="207" y="57" width="11" height="23">
<path d="M212.863 79.442L207.974 57.9883H217.531L212.863 79.442Z" fill="white"/>
</mask>
<g mask="url(#mask0_186_20872)">
<path d="M210.543 62.5473L211.731 64.4801L209.521 75.1932L213.195 81.3504L216.123 74.9447L213.692 64.4801L214.742 62.5473L212.753 59.6758L210.543 62.5473Z" fill="#F9C98B"/>
</g>
<path d="M207.671 58.2726C208.223 55.7599 208.306 53.0817 208.03 50.293H217.283C217.145 52.9712 217.339 55.6219 217.781 58.2726L212.588 59.8188L207.671 58.2726Z" fill="#FFE8DF"/>
<mask id="mask1_186_20872" style="mask-type:luminance" maskUnits="userSpaceOnUse" x="207" y="50" width="11" height="10">
<path d="M207.671 58.2608C208.223 55.7482 208.306 53.07 208.03 50.2812H217.283C217.145 52.9595 217.339 55.6102 217.781 58.2608L212.588 59.8071L207.671 58.2608Z" fill="white"/>
</mask>
<g mask="url(#mask1_186_20872)">
<path d="M207.671 58.2608C208.223 55.7482 208.306 53.07 208.03 50.2812H217.283C217.145 52.9595 217.339 55.6102 217.781 58.2608L212.588 59.8071L207.671 58.2608Z" fill="#FFE8DF"/>
<mask id="mask2_186_20872" style="mask-type:luminance" maskUnits="userSpaceOnUse" x="207" y="50" width="11" height="10">
<path d="M207.671 58.2608C208.223 55.7482 208.306 53.07 208.03 50.2812H217.283C217.145 52.9595 217.339 55.6102 217.781 58.2608L212.588 59.8071L207.671 58.2608Z" fill="white"/>
</mask>
<g mask="url(#mask2_186_20872)">
<path d="M217.145 53.1802C216.123 57.7913 207.671 56.3279 207.671 56.3279V49.8945L217.145 53.1802Z" fill="#F08F7B"/>
</g>
</g>
<path d="M206.18 50.0708C207.324 50.0708 208.251 49.156 208.251 48.0276C208.251 46.8992 207.324 45.9844 206.18 45.9844C205.035 45.9844 204.108 46.8992 204.108 48.0276C204.108 49.156 205.035 50.0708 206.18 50.0708Z" fill="#FFE8DF"/>
<path d="M205.516 46.9219C205.185 47.1428 205.019 47.5293 205.047 47.9159C205.075 48.3024 205.323 48.6614 205.682 48.827" stroke="#272525" stroke-width="0.3" stroke-miterlimit="10" stroke-linecap="round" stroke-linejoin="round"/>
<path d="M218.858 50.0708C220.002 50.0708 220.929 49.156 220.929 48.0276C220.929 46.8992 220.002 45.9844 218.858 45.9844C217.714 45.9844 216.786 46.8992 216.786 48.0276C216.786 49.156 217.714 50.0708 218.858 50.0708Z" fill="#FFE8DF"/>
<path d="M219.576 46.9219C219.907 47.1428 220.073 47.5293 220.045 47.9159C220.018 48.3024 219.769 48.6614 219.41 48.827" stroke="#272525" stroke-width="0.3" stroke-miterlimit="10" stroke-linecap="round" stroke-linejoin="round"/>
<path d="M205.738 46.4814L204.439 40.8211C204.246 39.9928 204.688 39.1645 205.434 38.9436C205.434 38.9436 205.075 37.425 205.71 36.7899L205.903 37.9496C205.903 37.9496 207.754 35.6579 208.721 35.4922L208.058 36.7623C208.058 36.7623 210.571 34.94 215.074 35.7131C219.024 36.4034 219.908 39.9376 219.908 39.9376C219.908 39.9376 220.239 40.1032 220.322 40.3517C220.405 40.6002 219.272 46.8955 219.272 46.8955L205.738 46.4814Z" fill="#6B4E2F"/>
<path d="M212.532 55.2893C209.162 55.2893 206.4 52.5282 206.4 49.1597V46.371C206.4 43.0024 209.052 39.5234 212.422 39.5234C215.792 39.5234 218.582 43.0024 218.582 46.371V49.2425C218.582 52.5834 215.875 55.2893 212.532 55.2893Z" fill="#FFE8DF"/>
<path d="M215.488 46.9498C215.839 46.9498 216.123 46.6655 216.123 46.3147C216.123 45.964 215.839 45.6797 215.488 45.6797C215.137 45.6797 214.853 45.964 214.853 46.3147C214.853 46.6655 215.137 46.9498 215.488 46.9498Z" fill="#272525"/>
<path d="M209.522 46.9498C209.873 46.9498 210.157 46.6655 210.157 46.3147C210.157 45.964 209.873 45.6797 209.522 45.6797C209.171 45.6797 208.886 45.964 208.886 46.3147C208.886 46.6655 209.171 46.9498 209.522 46.9498Z" fill="#272525"/>
<path d="M212.616 46.6484C212.616 46.6484 211.87 47.67 212.008 47.9462C212.146 48.2223 212.781 48.5812 212.864 48.5536" stroke="black" stroke-width="0.3" stroke-miterlimit="10" stroke-linecap="round" stroke-linejoin="round"/>
<path d="M211.317 49.4573C211.621 49.6782 212.063 49.8991 212.67 49.8715C213.223 49.8439 213.637 49.6506 213.941 49.4297" stroke="black" stroke-width="0.3" stroke-miterlimit="10" stroke-linecap="round" stroke-linejoin="round"/>
<path d="M214.743 44.3557C214.743 44.3557 215.654 44.052 216.345 44.4938" stroke="#272525" stroke-width="0.3" stroke-miterlimit="10" stroke-linecap="round" stroke-linejoin="round"/>
<path d="M210.24 44.3557C210.24 44.3557 209.329 44.052 208.638 44.4938" stroke="#272525" stroke-width="0.3" stroke-miterlimit="10" stroke-linecap="round" stroke-linejoin="round"/>
<path d="M209.577 48.4912C210.553 48.4912 211.345 47.7001 211.345 46.7241C211.345 45.7482 210.553 44.957 209.577 44.957C208.601 44.957 207.809 45.7482 207.809 46.7241C207.809 47.7001 208.601 48.4912 209.577 48.4912Z" stroke="white" stroke-width="0.3" stroke-miterlimit="10"/>
<path d="M215.378 48.4912C216.354 48.4912 217.146 47.7001 217.146 46.7241C217.146 45.7482 216.354 44.957 215.378 44.957C214.401 44.957 213.61 45.7482 213.61 46.7241C213.61 47.7001 214.401 48.4912 215.378 48.4912Z" stroke="white" stroke-width="0.3" stroke-miterlimit="10"/>
<path d="M211.345 46.5H213.61" stroke="white" stroke-width="0.3" stroke-miterlimit="10"/>
<path d="M212.311 41.6244C215.774 41.6244 218.582 40.7344 218.582 39.6364C218.582 38.5385 215.774 37.6484 212.311 37.6484C208.848 37.6484 206.041 38.5385 206.041 39.6364C206.041 40.7344 208.848 41.6244 212.311 41.6244Z" fill="#6B4E2F"/>
<path d="M206.732 40.2656C206.981 41.2872 208.859 42.5021 209.908 42.585C209.936 42.5573 209.881 42.4745 209.798 42.4193C209.384 42.0327 209.107 41.5081 209.052 40.9283V40.9007L206.732 40.2656Z" fill="#6B4E2F"/>
<path d="M208.362 55.508L212.643 59.6496L209.467 64.0398L207.312 57.3027L207.947 55.5908C208.003 55.4528 208.224 55.3975 208.362 55.508Z" fill="white" stroke="#AEB5EC" stroke-width="0.3" stroke-miterlimit="10"/>
<path d="M217.145 55.5626L212.753 59.7043L216.123 64.481L218.278 57.0812L217.587 55.6455C217.504 55.4798 217.283 55.4246 217.145 55.5626Z" fill="white" stroke="#AEB5EC" stroke-width="0.3" stroke-miterlimit="10"/>
<path d="M234.491 62.0511V57.0259C234.491 55.7558 235.458 54.6513 236.729 54.5133L244.988 53.5469V56.6393L242.64 57.4952V62.0511H234.491Z" fill="#FFE8DF"/>
<path d="M236.729 54.5159L238.856 51.2578C238.856 51.2578 239.463 51.8376 239.74 52.6936C239.988 53.5495 238.939 55.1234 238.939 55.1234L236.729 54.5159Z" fill="#FFE8DF"/>
<path d="M240.43 54.0767L242.17 51.0395C242.391 50.6254 242.778 50.3493 243.22 50.2112L243.966 50.1836L241.784 54.6014L240.43 54.0767Z" fill="#FFE8DF"/>
<path d="M244.988 56.613L247.28 51.0079C247.363 50.8146 247.225 50.5938 247.004 50.5938H246.148C245.761 50.5938 245.402 50.787 245.209 51.1184L243.082 54.5697L244.988 56.613Z" fill="#FFE8DF"/>
<path d="M243.607 56.616L245.872 50.3207C245.955 50.0998 245.789 49.8789 245.54 49.8789L244.601 49.9065C244.187 49.9341 243.8 50.155 243.607 50.514L241.425 54.4347L243.607 56.616Z" fill="#FFE8DF"/>
<path d="M238.413 57.1666C238.413 57.1666 238.662 55.3719 240.43 55.2891" stroke="#F08F7B" stroke-width="0.3" stroke-miterlimit="10"/>
<path d="M238.193 81.8813C236.784 81.8813 235.431 81.3567 234.381 80.3351L222.255 68.5728L230.017 60.7313L232.972 63.6856L233.027 60.6484L243.993 60.676L243.662 76.4972C243.607 78.6784 242.281 80.6112 240.264 81.4395C239.601 81.7433 238.911 81.8813 238.193 81.8813Z" fill="#2B3C27"/>
<path d="M243.248 58.4375H234.215V60.6464H243.248V58.4375Z" fill="white"/>
<path d="M253.029 137.37H181.106C179.723 137.37 178.661 136.384 178.661 135.214V88.5038C178.661 87.3339 179.723 86.3477 181.106 86.3477H253C254.383 86.3477 255.445 87.3339 255.445 88.5038V135.214C255.445 136.385 254.381 137.37 253.029 137.37Z" fill="white" stroke="#D9D9D9" stroke-width="0.5"/>
<path d="M189.025 102.656H195.038V96.6756C195.038 93.3796 192.339 90.6953 189.025 90.6953C185.711 90.6953 183.011 93.3796 183.011 96.6756C183.011 99.9716 185.711 102.656 189.025 102.656Z" fill="#F4A8A8"/>
<path d="M192.032 97.2209C191.768 97.2209 191.553 97.008 191.553 96.7452C191.553 96.4825 191.768 96.2695 192.032 96.2695C192.296 96.2695 192.51 96.4825 192.51 96.7452C192.51 97.008 192.296 97.2209 192.032 97.2209Z" fill="white"/>
<path d="M189.093 97.2209C188.829 97.2209 188.615 97.008 188.615 96.7452C188.615 96.4825 188.829 96.2695 189.093 96.2695C189.357 96.2695 189.572 96.4825 189.572 96.7452C189.572 97.008 189.357 97.2209 189.093 97.2209Z" fill="white"/>
<path d="M186.189 97.2209C185.925 97.2209 185.711 97.008 185.711 96.7452C185.711 96.4825 185.925 96.2695 186.189 96.2695C186.453 96.2695 186.667 96.4825 186.667 96.7452C186.667 97.008 186.453 97.2209 186.189 97.2209Z" fill="white"/>
<path d="M205.197 126.147C204.79 120.42 205.255 115.676 205.982 108.936L224.22 106.68C218.723 113.969 209.56 120.102 205.197 126.147Z" fill="white"/>
<path d="M227.362 137.252H198.652C199.379 127.069 202.23 117.668 206.39 113.04L218.199 112.809L224.453 114.862L227.362 137.252Z" fill="#E49724"/>
<path d="M205.197 126.141C205.197 126.141 203.946 132.128 204.353 137.22" stroke="#974F3B" stroke-width="0.3" stroke-miterlimit="10"/>
<path d="M206.826 130.975C207.292 130.975 207.669 130.599 207.669 130.136C207.669 129.672 207.292 129.297 206.826 129.297C206.36 129.297 205.982 129.672 205.982 130.136C205.982 130.599 206.36 130.975 206.826 130.975Z" stroke="#974F3B" stroke-width="0.3" stroke-miterlimit="10"/>
<path d="M206.826 136.213C207.292 136.213 207.669 135.837 207.669 135.374C207.669 134.911 207.292 134.535 206.826 134.535C206.36 134.535 205.982 134.911 205.982 135.374C205.982 135.837 206.36 136.213 206.826 136.213Z" stroke="#974F3B" stroke-width="0.3" stroke-miterlimit="10"/>
<path d="M212.614 89.3569C217.675 88.9519 221.486 92.8859 221.631 97.2249C221.777 101.564 222.271 102.808 224.598 104.948C226.896 107.089 226.343 111.92 218.024 111.428C209.705 110.936 203.306 112.614 202.986 108.333C202.666 104.052 204.964 100.031 205.022 99.4812C205.08 98.9316 203.277 90.6586 212.614 89.3569Z" fill="#44160B"/>
<path d="M213.253 110.36L212.352 107.062C212.294 106.831 212.061 106.744 211.857 106.86L205.225 111.343C204.963 111.517 204.789 111.835 204.789 112.182L204.993 115.017C205.051 115.914 206.098 116.348 206.796 115.769L213.253 110.36Z" fill="white"/>
<path d="M205.254 97.8087C204.644 101.106 204.411 106.631 209.094 108.222C209.036 108.454 208.396 112.474 206.36 113.053C205.371 115.049 213.195 118.318 218.169 112.822C218.169 112.822 216.366 110.074 217.326 104.954C217.326 104.954 219.827 104.722 220.002 102.553C220.206 100.181 218.431 100.181 218.431 100.181L218.489 97.2301C217.442 96.507 214.795 93.7589 210.636 93.9904C209.85 94.0482 209.152 94.1639 208.512 94.3085C206.854 94.7135 205.574 96.102 205.254 97.8087Z" fill="#FFE8DF"/>
<mask id="mask3_186_20872" style="mask-type:luminance" maskUnits="userSpaceOnUse" x="204" y="93" width="17" height="23">
<path d="M205.254 97.8165C204.644 101.114 204.411 106.639 209.094 108.23C209.036 108.461 208.396 112.482 206.36 113.061C205.371 115.057 213.195 118.325 218.169 112.829C218.169 112.829 216.366 110.081 217.326 104.961C217.326 104.961 219.827 104.73 220.002 102.56C220.206 100.188 218.431 100.188 218.431 100.188L218.489 97.2379C217.442 96.5148 214.795 93.7668 210.636 93.9982C209.85 94.056 209.152 94.1717 208.512 94.3164C206.854 94.7213 205.574 96.1098 205.254 97.8165Z" fill="white"/>
</mask>
<g mask="url(#mask3_186_20872)">
<path d="M209.094 108.226C209.094 108.226 212.381 108.949 214.359 107.242C214.388 109.267 210.054 110.887 207.902 110.945L209.094 108.226Z" fill="#FF917B"/>
</g>
<mask id="mask4_186_20872" style="mask-type:luminance" maskUnits="userSpaceOnUse" x="204" y="93" width="17" height="23">
<path d="M205.254 97.8165C204.644 101.114 204.411 106.639 209.094 108.23C209.036 108.461 208.396 112.482 206.36 113.061C205.371 115.057 213.195 118.325 218.169 112.829C218.169 112.829 216.366 110.081 217.326 104.961C217.326 104.961 219.827 104.73 220.002 102.56C220.206 100.188 218.431 100.188 218.431 100.188L218.489 97.2379C217.442 96.5148 214.795 93.7668 210.636 93.9982C209.85 94.056 209.152 94.1717 208.512 94.3164C206.854 94.7213 205.574 96.1098 205.254 97.8165Z" fill="white"/>
</mask>
<g mask="url(#mask4_186_20872)">
<path d="M217.704 101.309C218.315 101.194 219.072 101.714 219.188 102.293" stroke="#272525" stroke-width="0.3" stroke-miterlimit="10" stroke-linecap="round" stroke-linejoin="round"/>
<path d="M212.643 99.9248C212.73 99.5776 213.109 99.4041 213.458 99.4909C213.807 99.5776 213.981 99.9537 213.894 100.301C213.807 100.648 213.429 100.821 213.08 100.735C212.73 100.619 212.556 100.272 212.643 99.9248Z" fill="#382D2A"/>
<path d="M206.913 99.4287C207 99.0816 207.378 98.908 207.727 98.9948C208.076 99.0816 208.251 99.4576 208.164 99.8047C208.076 100.152 207.698 100.325 207.349 100.239C207 100.123 206.825 99.7469 206.913 99.4287Z" fill="#382D2A"/>
<path d="M209.88 100.18C209.88 100.18 208.949 101.047 209.065 101.337C209.182 101.626 209.793 102.031 209.88 102.031" stroke="black" stroke-width="0.3" stroke-miterlimit="10" stroke-linecap="round" stroke-linejoin="round"/>
<path d="M208.193 102.672C208.367 102.817 210.258 104.002 211.451 102.672" stroke="black" stroke-width="0.3" stroke-miterlimit="10" stroke-linecap="round" stroke-linejoin="round"/>
<path d="M206.709 97.8963C206.709 97.8963 207.378 97.5492 207.902 97.9541" stroke="#272525" stroke-width="0.3" stroke-miterlimit="10" stroke-linecap="round" stroke-linejoin="round"/>
<path d="M212.381 98.073C212.381 98.073 213.283 97.8126 213.952 98.2755" stroke="#272525" stroke-width="0.3" stroke-miterlimit="10" stroke-linecap="round" stroke-linejoin="round"/>
<path d="M214.795 101.515C214.795 101.891 214.242 102.181 213.544 102.181C212.846 102.181 212.265 101.891 212.265 101.544C212.265 101.168 212.817 100.879 213.515 100.879C214.242 100.879 214.795 101.168 214.795 101.515Z" fill="#F08F7B"/>
<path d="M208.512 101.31C208.512 101.686 207.96 101.976 207.262 101.976C206.564 101.976 205.982 101.686 205.982 101.339C205.982 100.992 206.534 100.674 207.233 100.674C207.931 100.645 208.512 100.934 208.512 101.31Z" fill="#F08F7B"/>
</g>
<path d="M211.683 92.8281C211.538 95.9811 218.49 100.147 218.49 100.147L219.479 95.6051L211.683 92.8281Z" fill="#44160B"/>
<path d="M209.56 92.1641C208.483 92.8294 209.036 96.2716 211.043 96.6766C211.043 96.6766 209.967 93.6972 212.119 93.5815L209.56 92.1641Z" fill="#44160B"/>
<path d="M219.013 112.235L218.112 108.937C218.053 108.706 217.821 108.619 217.617 108.735L210.985 113.218C210.723 113.392 210.549 113.71 210.549 114.057L210.869 119.061L219.013 112.235Z" fill="white"/>
<path d="M221.311 113.855C221.311 113.855 227.303 115.07 234.285 118.947L235.972 132.426C235.972 132.426 228.787 132.889 225.267 131.038C221.719 129.187 221.311 113.855 221.311 113.855Z" fill="#E49724"/>
<path d="M240.014 112.617C240.014 112.617 240.625 102.782 240.16 102.087C239.287 100.757 234.459 99.1947 232.975 99.6286C231.492 100.062 231.085 103.447 231.055 103.62C231.026 103.794 231.841 111.402 231.841 111.402L240.014 112.617Z" fill="#FFE8DF"/>
<path d="M237.949 101.422C236.844 101.914 236.786 102.058 236.378 102.868C236.088 103.418 235.971 104.72 235.942 105.472C235.913 105.819 236.175 106.108 236.495 106.137C236.786 106.195 237.135 106.224 237.397 106.166C237.92 106.079 238.415 104.025 238.415 104.025L239.055 103.765" stroke="#F08F7B" stroke-width="0.3" stroke-miterlimit="10" stroke-linecap="round"/>
<path d="M235.913 100.672C234.953 101.221 234.633 101.655 234.459 102.031C234.284 102.407 233.673 105.242 233.877 105.445C234.052 105.647 235.419 106.255 235.913 105.011" stroke="#F08F7B" stroke-width="0.3" stroke-miterlimit="10" stroke-linecap="round"/>
<path d="M233.993 107.786C233.993 107.786 233.906 105.905 231.259 105.095C231.259 105.095 231.753 104.806 232.393 103.967C233.004 103.157 232.073 102.839 232.073 102.839C232.073 102.839 228.292 102.637 228.263 105.414C228.263 108.191 234.226 111.575 234.226 111.575" fill="#FFE8DF"/>
<path d="M233.993 107.786C233.993 107.786 233.906 105.905 231.259 105.095C231.259 105.095 231.753 104.806 232.393 103.967C233.004 103.157 232.073 102.839 232.073 102.839C232.073 102.839 228.292 102.637 228.263 105.414C228.263 108.191 234.226 111.575 234.226 111.575" stroke="#F08F7B" stroke-width="0.3" stroke-miterlimit="10" stroke-linecap="round"/>
<path d="M234.109 100.121C234.109 100.121 233.499 100.295 233.062 100.931C232.626 101.567 232.393 102.898 232.393 102.898" stroke="#F08F7B" stroke-width="0.3" stroke-miterlimit="10" stroke-linecap="round"/>
<path d="M240.916 111.578H230.707V114.789H240.916V111.578Z" fill="white"/>
<path d="M235.884 132.342C239.404 132.342 242.225 129.45 242.109 125.949L241.382 114.523H230.445L229.717 125.949C229.543 129.421 232.364 132.342 235.884 132.342Z" fill="#E49724"/>
<path d="M230.241 117.328L230.037 125.023" stroke="#974F3B" stroke-width="0.3" stroke-miterlimit="10"/>
<path d="M175.99 135.542C176.178 135.542 176.33 135.39 176.33 135.203C176.33 135.015 176.178 134.863 175.99 134.863C175.803 134.863 175.651 135.015 175.651 135.203C175.651 135.39 175.803 135.542 175.99 135.542Z" fill="#CED3F4"/>
<path d="M177.824 135.542C178.012 135.542 178.164 135.39 178.164 135.203C178.164 135.015 178.012 134.863 177.824 134.863C177.637 134.863 177.485 135.015 177.485 135.203C177.485 135.39 177.637 135.542 177.824 135.542Z" fill="#CED3F4"/>
<path d="M179.658 135.542C179.846 135.542 179.998 135.39 179.998 135.203C179.998 135.015 179.846 134.863 179.658 134.863C179.471 134.863 179.319 135.015 179.319 135.203C179.319 135.39 179.471 135.542 179.658 135.542Z" fill="#CED3F4"/>
<path d="M181.492 135.542C181.68 135.542 181.832 135.39 181.832 135.203C181.832 135.015 181.68 134.863 181.492 134.863C181.305 134.863 181.153 135.015 181.153 135.203C181.153 135.39 181.305 135.542 181.492 135.542Z" fill="#CED3F4"/>
<path d="M183.326 135.542C183.514 135.542 183.666 135.39 183.666 135.203C183.666 135.015 183.514 134.863 183.326 134.863C183.139 134.863 182.987 135.015 182.987 135.203C182.987 135.39 183.139 135.542 183.326 135.542Z" fill="#CED3F4"/>
<path d="M175.99 137.491C176.178 137.491 176.33 137.339 176.33 137.152C176.33 136.964 176.178 136.812 175.99 136.812C175.803 136.812 175.651 136.964 175.651 137.152C175.651 137.339 175.803 137.491 175.99 137.491Z" fill="#CED3F4"/>
<path d="M177.824 137.491C178.012 137.491 178.164 137.339 178.164 137.152C178.164 136.964 178.012 136.812 177.824 136.812C177.637 136.812 177.485 136.964 177.485 137.152C177.485 137.339 177.637 137.491 177.824 137.491Z" fill="#CED3F4"/>
<path d="M179.658 137.491C179.846 137.491 179.998 137.339 179.998 137.152C179.998 136.964 179.846 136.812 179.658 136.812C179.471 136.812 179.319 136.964 179.319 137.152C179.319 137.339 179.471 137.491 179.658 137.491Z" fill="#CED3F4"/>
<path d="M181.492 137.491C181.68 137.491 181.832 137.339 181.832 137.152C181.832 136.964 181.68 136.812 181.492 136.812C181.305 136.812 181.153 136.964 181.153 137.152C181.153 137.339 181.305 137.491 181.492 137.491Z" fill="#CED3F4"/>
<path d="M183.326 137.491C183.514 137.491 183.666 137.339 183.666 137.152C183.666 136.964 183.514 136.812 183.326 136.812C183.139 136.812 182.987 136.964 182.987 137.152C182.987 137.339 183.139 137.491 183.326 137.491Z" fill="#CED3F4"/>
<path d="M175.991 139.46C176.178 139.46 176.33 139.308 176.33 139.121C176.33 138.933 176.178 138.781 175.991 138.781C175.803 138.781 175.651 138.933 175.651 139.121C175.651 139.308 175.803 139.46 175.991 139.46Z" fill="#CED3F4"/>
<path d="M177.824 139.46C178.012 139.46 178.164 139.308 178.164 139.121C178.164 138.933 178.012 138.781 177.824 138.781C177.637 138.781 177.485 138.933 177.485 139.121C177.485 139.308 177.637 139.46 177.824 139.46Z" fill="#CED3F4"/>
<path d="M179.658 139.46C179.846 139.46 179.998 139.308 179.998 139.121C179.998 138.933 179.846 138.781 179.658 138.781C179.471 138.781 179.319 138.933 179.319 139.121C179.319 139.308 179.471 139.46 179.658 139.46Z" fill="#CED3F4"/>
<path d="M181.492 139.46C181.68 139.46 181.832 139.308 181.832 139.121C181.832 138.933 181.68 138.781 181.492 138.781C181.305 138.781 181.153 138.933 181.153 139.121C181.153 139.308 181.305 139.46 181.492 139.46Z" fill="#CED3F4"/>
<path d="M183.326 139.46C183.514 139.46 183.666 139.308 183.666 139.121C183.666 138.933 183.514 138.781 183.326 138.781C183.139 138.781 182.987 138.933 182.987 139.121C182.987 139.308 183.139 139.46 183.326 139.46Z" fill="#CED3F4"/>
<path d="M195.814 48.6589H174.782C173.383 48.6589 172.248 47.5366 172.248 46.1534V28.197C172.248 26.8137 173.383 25.6914 174.782 25.6914H195.814C197.213 25.6914 198.348 26.8137 198.348 28.197V46.1795C198.348 47.5366 197.213 48.6589 195.814 48.6589Z" fill="#FFC683"/>
<path d="M194.535 46.6679H173.575C172.182 46.6679 171.051 45.5375 171.051 44.1443V26.0587C171.051 24.6655 172.182 23.5352 173.575 23.5352H194.535C195.928 23.5352 197.059 24.6655 197.059 26.0587V44.1706C197.059 45.5375 195.928 46.6679 194.535 46.6679Z" fill="#ED8000"/>
<path d="M182.247 39.0826L187.375 35.5601C187.69 35.3498 187.69 34.903 187.375 34.6927L182.247 31.1702C181.905 30.9336 181.431 31.1702 181.431 31.6171V38.6357C181.405 39.0563 181.878 39.3192 182.247 39.0826Z" fill="white"/>
<path d="M270.573 30.3672L271.116 30.6175" stroke="#CED3F4" stroke-width="0.3" stroke-linecap="round" stroke-linejoin="round"/>
<path d="M273.244 31.7031L292.317 41.3191C302.709 46.5547 309.282 57.2136 309.282 68.8528V90.9841" stroke="#CED3F4" stroke-width="0.3" stroke-linecap="round" stroke-linejoin="round" stroke-dasharray="5.72 5.72"/>
<path d="M309.282 92.1484V92.7533" stroke="#CED3F4" stroke-width="0.3" stroke-linecap="round" stroke-linejoin="round"/>
<path d="M273.578 20L269.718 24.7767L267.214 27.8638L262.456 33.746L251 21.5644L273.578 20Z" fill="#CED3F4"/>
<path d="M269.718 24.7787L267.214 27.8658L251 21.5664L269.718 24.7787Z" fill="#8992CE"/>
<path d="M269.718 24.7773L270.573 30.3675L267.214 27.8645L269.718 24.7773Z" fill="#8992CE"/>
<path d="M243.969 109.055C243.969 107.011 249.27 101.692 254.987 102.109L256.51 107.491L247.391 112.413L243.969 109.055Z" fill="#1D1A37"/>
<path d="M276.23 89.4102L259.912 105.2L269.824 117.528L283.7 100.257L276.23 89.4102Z" fill="#1D1A37"/>
<path d="M269.824 117.528C252.65 132.963 243.99 109.038 243.99 109.038C245.2 109.372 246.348 109.559 247.454 109.58C249.082 109.622 250.563 109.33 251.836 108.725C252.4 108.454 252.9 108.141 253.38 107.766H261.998L269.824 117.528Z" fill="#1D1A37"/>
<path d="M298.224 82.707L286.079 84.0003L276.23 89.4027C276.23 89.4027 268.697 117.875 268.864 131.037L263.23 147.975H308.073L307.572 126.928L314.792 98.3095C315.502 95.4935 314.354 92.5316 311.913 90.9046C306.675 87.4003 298.224 82.707 298.224 82.707Z" fill="#1D1A37"/>
<path d="M298.224 82.3337L286.205 85.984C286.205 84.3362 285.391 82.3337 285.391 82.3337C285.391 82.3337 292.632 80.8319 294.656 73.5312L298.224 82.3337Z" fill="#FFE8DF"/>
<path d="M278.734 70.7339C281.004 70.7339 282.845 68.9221 282.845 66.6873C282.845 64.4524 281.004 62.6406 278.734 62.6406C276.464 62.6406 274.623 64.4524 274.623 66.6873C274.623 68.9221 276.464 70.7339 278.734 70.7339Z" fill="#39281C"/>
<path d="M284.744 58.3243C280.779 57.0311 277.566 58.5746 277.566 61.1194C277.566 63.6642 279.36 65.7501 281.572 65.7501C282.824 65.7501 283.951 65.0826 284.681 64.0397L285.307 68.7746L296.972 72.8421L299.059 63.4347C295.574 55.5292 287.561 58.1574 284.744 58.3243Z" fill="#39281C"/>
<path d="M282.886 62.9118C284.806 62.6615 286.642 62.4946 288.187 62.5989C289.105 62.6615 289.856 63.3499 290.002 64.2677L290.419 66.9584C290.586 68.064 291.671 68.8149 292.777 68.5854L293.8 68.3769L293.028 60.4922L282.886 62.9118Z" fill="#39281C"/>
<path d="M296.158 73.716C297.222 72.986 297.681 71.5676 297.181 70.2535C296.638 68.8351 295.177 68.0633 293.8 68.397L292.235 61.0547L282.261 63.0989C279.819 63.5995 278.15 65.8522 278.379 68.3136L279.59 76.3234C279.59 76.3234 280.883 83.8118 286.789 82.3725C286.789 82.3725 294.051 80.9749 296.158 73.716Z" fill="#FFE8DF"/>
<path d="M286.726 73.274C287.152 73.274 287.498 72.9285 287.498 72.5023C287.498 72.076 287.152 71.7305 286.726 71.7305C286.3 71.7305 285.954 72.076 285.954 72.5023C285.954 72.9285 286.3 73.274 286.726 73.274Z" fill="#272525"/>
<path d="M280.466 74.05C280.869 74.05 281.196 73.7231 281.196 73.3199C281.196 72.9167 280.869 72.5898 280.466 72.5898C280.063 72.5898 279.736 72.9167 279.736 73.3199C279.736 73.7231 280.063 74.05 280.466 74.05Z" fill="#272525"/>
<path d="M285.203 70.7538C285.203 70.7538 286.267 70.0446 287.331 70.3784" stroke="#272525" stroke-width="0.3" stroke-miterlimit="10" stroke-linecap="round" stroke-linejoin="round"/>
<path d="M278.963 71.5923C279.36 71.4046 279.923 71.2377 280.507 71.3837" stroke="#272525" stroke-width="0.3" stroke-miterlimit="10" stroke-linecap="round" stroke-linejoin="round"/>
<path d="M282.949 73.0898L281.634 75.5929C281.634 75.5929 282.323 76.4481 283.157 76.4273" stroke="black" stroke-width="0.3" stroke-miterlimit="10" stroke-linecap="round" stroke-linejoin="round"/>
<path d="M282.803 78.3429L285.494 77.8632C285.766 77.8215 285.995 77.6755 286.141 77.446L286.559 76.8828" stroke="black" stroke-width="0.3" stroke-miterlimit="10" stroke-linecap="round" stroke-linejoin="round"/>
<path d="M294.322 69.5234C294.968 69.5443 295.553 69.9198 295.782 70.5247C296.095 71.3382 295.657 72.2559 294.801 72.5688" stroke="#272525" stroke-width="0.3" stroke-miterlimit="10" stroke-linecap="round" stroke-linejoin="round"/>
<path d="M277.42 64.7069C279.402 65.583 283.701 63.9351 283.701 63.9351C283.701 63.9351 287.185 71.5069 293.821 68.3989C297.243 66.7928 292.507 59.4922 292.507 59.4922C292.507 59.4922 277.962 61.891 277.42 64.7069Z" fill="#39281C"/>
<path d="M277.941 66.2713C279.543 66.2713 280.842 65.0012 280.842 63.4345C280.842 61.8677 279.543 60.5977 277.941 60.5977C276.339 60.5977 275.041 61.8677 275.041 63.4345C275.041 65.0012 276.339 66.2713 277.941 66.2713Z" fill="#39281C"/>
<path d="M298.015 82.3555L275.645 109.347C275.645 109.347 275.207 97.207 280.925 86.4647L286.058 83.6279L298.015 82.3555Z" fill="white"/>
<path d="M287.707 87.2131L285.537 88.9026C284.139 92.0315 282.907 98.456 282.448 101.147L275.646 109.344C275.646 109.344 275.479 104.505 276.773 98.2474C279.798 92.1149 284.452 88.3812 284.452 88.3812L283.888 87.1505L286.351 84.418L287.707 87.2131Z" fill="#A54952"/>
<path d="M296.826 79.0792L286.35 84.4191L287.728 87.1934L298.537 82.813C298.683 82.7504 298.745 82.5835 298.683 82.4584L297.222 79.2044C297.139 79.0792 296.972 79.0167 296.826 79.0792Z" fill="white"/>
<path d="M260.329 69.0457L259.62 71.1941L255.133 84.6898L254.278 87.2346C253.839 86.588 253.422 85.8997 253.026 85.2113C252.65 84.5438 252.274 83.8763 251.94 83.2088L252.879 80.3512L256.698 68.8788L257.366 66.8555C257.888 67.1684 258.43 67.523 258.973 67.9401C259.432 68.2947 259.891 68.6493 260.329 69.0457Z" fill="white"/>
<path d="M265.692 75.4493L264.836 78.0149L260.371 91.4272L259.661 93.5756C258.138 92.2407 256.656 90.572 255.258 88.6738L256.072 86.2125L260.684 72.3413L261.414 70.1094C262.937 71.6321 264.377 73.4259 265.692 75.4493Z" fill="white"/>
<path d="M267.445 78.43L266.527 81.2043L262.541 93.1982L261.873 95.2423C261.56 95.0337 261.227 94.8043 260.893 94.554L261.581 92.4681L265.817 79.7442L266.694 77.0742C266.736 77.1368 266.756 77.1994 266.798 77.2619C267.028 77.6583 267.236 78.0337 267.445 78.43Z" fill="white"/>
<path d="M270.971 88.7012C270.763 86.9699 270.283 85.0926 269.573 83.1528C268.864 81.2129 267.925 79.2313 266.819 77.2705C264.565 73.3699 261.79 70.0534 259.014 67.9466C255.989 65.6521 253.213 65.0264 251.231 66.1736C249.249 67.3209 248.414 70.0325 248.873 73.7871C249.311 77.2497 250.793 81.3172 253.046 85.2178C255.3 89.1184 258.075 92.435 260.872 94.5417C262.917 96.0853 264.836 96.8779 266.485 96.8779C267.007 96.8779 267.507 96.7945 267.966 96.6276C268.196 96.5442 268.426 96.4399 268.655 96.3147C268.78 96.2313 268.905 96.1687 269.01 96.0853C270.7 94.8129 271.41 92.2264 270.971 88.7012ZM267.591 94.5209C265.191 95.9184 259.348 92.0178 254.841 84.1957C250.313 76.3736 249.854 69.365 252.274 67.9883C252.608 67.8006 252.984 67.7172 253.422 67.7172C254.591 67.7172 256.093 68.3847 257.762 69.6362C260.329 71.5761 262.917 74.6632 265.024 78.3344C269.532 86.1356 269.991 93.1233 267.591 94.5209Z" fill="#555F9E"/>
<path d="M278.567 113.832C277.711 114.333 276.626 114.041 276.125 113.185L270.554 103.549C270.053 102.693 270.345 101.609 271.2 101.108C272.056 100.608 273.141 100.9 273.642 101.755L279.193 111.371C279.714 112.247 279.422 113.331 278.567 113.832Z" fill="#AEB5EC"/>
<path d="M272.286 101.818L271.264 102.402L267.946 96.6244C268.175 96.5409 268.405 96.4366 268.634 96.3115C268.76 96.228 268.885 96.1655 268.989 96.082L272.286 101.818Z" fill="#AEB5EC"/>
<path d="M314.917 96.2891L313.478 120.235C313.165 125.533 308.365 129.434 303.107 128.641L283.992 125.763L286.183 110.703L298.954 112.538L300.498 97.3737" fill="#1D1A37"/>
<path d="M314.917 96.2891L313.478 120.235C313.165 125.533 308.365 129.434 303.107 128.641L283.992 125.763L286.183 110.703L298.954 112.538L300.498 97.3737" stroke="#555F9E" stroke-width="0.3" stroke-miterlimit="10"/>
<path d="M286.183 110.699L282.886 109.99L281.989 108.697C280.611 106.715 278.191 105.756 275.812 106.215L273.016 106.757L273.746 118.709C273.85 120.336 275.144 121.65 276.772 121.775L281.53 121.212L284.639 122.026L286.183 110.699Z" fill="#FFE8DF"/>
<path d="M269.26 108.348C269.197 107.493 269.844 106.742 270.7 106.679L275.52 106.324C276.376 106.262 277.127 106.909 277.189 107.764C277.252 108.619 276.605 109.37 275.75 109.432L270.929 109.787C270.074 109.871 269.322 109.224 269.26 108.348Z" fill="#FFE8DF"/>
<path d="M269.385 111.395C269.322 110.539 269.969 109.789 270.825 109.726L275.645 109.371C276.501 109.309 277.252 109.955 277.314 110.811C277.377 111.666 276.73 112.417 275.874 112.479L271.054 112.834C270.199 112.897 269.447 112.25 269.385 111.395Z" fill="#FFE8DF"/>
<path d="M269.614 114.524C269.552 113.668 270.199 112.917 271.054 112.855L275.875 112.5C276.73 112.438 277.481 113.084 277.544 113.94C277.607 114.795 276.96 115.546 276.104 115.608L271.284 115.963C270.449 116.025 269.698 115.379 269.614 114.524Z" fill="#FFE8DF"/>
<path d="M269.823 117.528C269.76 116.672 270.407 115.921 271.263 115.859L276.083 115.504C276.938 115.442 277.69 116.088 277.752 116.943C277.815 117.799 277.168 118.55 276.312 118.612L271.492 118.967C270.637 119.05 269.885 118.404 269.823 117.528Z" fill="#FFE8DF"/>
<path d="M268.405 107.779H250.167C249.729 107.779 249.333 107.549 249.103 107.174L235.185 83.0817C234.705 82.2682 235.31 81.2461 236.249 81.2461H254.487C254.925 81.2461 255.321 81.4755 255.551 81.851L269.469 105.943C269.928 106.757 269.344 107.779 268.405 107.779Z" fill="#8992CE"/>
<path d="M267.424 107.775H249.186C248.748 107.775 248.352 107.545 248.122 107.17L234.204 83.0778C233.724 82.2643 234.329 81.2422 235.268 81.2422H253.506C253.944 81.2422 254.34 81.4716 254.57 81.8471L268.488 105.939C268.968 106.753 268.363 107.775 267.424 107.775Z" fill="white"/>
<mask id="mask5_186_20872" style="mask-type:luminance" maskUnits="userSpaceOnUse" x="234" y="81" width="35" height="27">
<path d="M267.424 107.775H249.186C248.748 107.775 248.351 107.545 248.122 107.17L234.203 83.0778C233.723 82.2643 234.328 81.2422 235.267 81.2422H253.505C253.943 81.2422 254.34 81.4716 254.569 81.8471L268.488 105.939C268.968 106.753 268.363 107.775 267.424 107.775Z" fill="white"/>
</mask>
<g mask="url(#mask5_186_20872)">
<path opacity="0.53" d="M240.443 88.7141C241.173 88.3595 242.029 88.2761 242.801 88.0466C244.429 87.5669 245.847 86.3779 246.599 84.8343C247.35 83.3116 247.433 81.4552 246.828 79.8699C243.135 79.8282 239.441 79.7865 235.748 79.7656C234.767 79.7656 233.598 79.8491 233.098 80.6834C232.785 81.2049 232.847 81.8515 232.931 82.4356C233.244 84.5423 233.932 86.6074 234.934 88.5055C235.393 89.3399 237.292 93.157 238.502 91.2172C239.107 90.2159 239.253 89.2773 240.443 88.7141Z" fill="#D3DBE5" stroke="#CED3F4" stroke-width="0.3" stroke-miterlimit="10"/>
</g>
<mask id="mask6_186_20872" style="mask-type:luminance" maskUnits="userSpaceOnUse" x="234" y="81" width="35" height="27">
<path d="M267.424 107.775H249.186C248.748 107.775 248.351 107.545 248.122 107.17L234.203 83.0778C233.723 82.2643 234.328 81.2422 235.267 81.2422H253.505C253.943 81.2422 254.34 81.4716 254.569 81.8471L268.488 105.939C268.968 106.753 268.363 107.775 267.424 107.775Z" fill="white"/>
</mask>
<g mask="url(#mask6_186_20872)">
<path opacity="0.71" d="M252.295 101.581C254.152 102.666 255.738 104.272 257.783 104.96C258.847 105.315 259.974 105.398 261.08 105.607C262.186 105.815 263.313 106.191 264.106 106.983C264.627 107.505 264.982 108.339 264.627 108.986C264.273 109.612 263.438 109.758 262.729 109.841C257.72 110.362 252.691 110.759 247.662 111.072C246.911 111.113 246.139 111.155 245.471 110.821C244.658 110.425 244.178 109.591 243.76 108.798C243.03 107.442 242.279 106.086 241.548 104.71C241.214 104.105 240.004 102.624 240.401 101.894C240.776 101.247 242.362 100.83 243.03 100.621C244.991 100.016 247.099 99.9122 249.102 100.35C250.208 100.58 251.293 100.997 252.295 101.581Z" fill="#CED3F4"/>
</g>
<mask id="mask7_186_20872" style="mask-type:luminance" maskUnits="userSpaceOnUse" x="230" y="83" width="43" height="22">
<path d="M271.993 90.8325L259.983 104.553C259.695 104.883 259.261 105.03 258.827 104.955L231.523 99.5624C230.595 99.3878 230.224 98.2595 230.842 97.5531L242.852 83.8324C243.141 83.5027 243.574 83.3555 244.008 83.4301L271.312 88.8231C272.241 88.9977 272.612 90.126 271.993 90.8325Z" fill="white"/>
</mask>
<g mask="url(#mask7_186_20872)">
<path d="M252.477 95.5495C253.008 94.9425 252.792 93.8848 251.994 93.1869C251.196 92.489 250.119 92.4153 249.587 93.0222C249.056 93.6291 249.272 94.6868 250.07 95.3847C250.868 96.0826 251.946 96.1564 252.477 95.5495Z" stroke="#CED3F4" stroke-width="0.3" stroke-miterlimit="10"/>
</g>
<path d="M251.815 108.738C250.542 109.343 249.04 109.635 247.433 109.593C247.266 109.447 247.141 109.28 247.016 109.093L240.881 100.082C240.318 99.2681 240.568 98.1418 241.423 97.6203H241.444L242.008 97.2865L243.907 96.1602L245.639 98.3295L245.701 98.3921L247.579 100.77L249.457 103.148L249.52 103.231L251.356 105.526C251.377 105.547 251.398 105.568 251.419 105.588C252.066 106.527 252.212 107.716 251.815 108.738Z" fill="#FFE8DF"/>
<path d="M247.725 94.8475C247.203 94.1592 246.222 94.034 245.534 94.5555L241.715 97.4966C241.027 98.0181 240.901 98.9984 241.423 99.6868C241.945 100.375 242.925 100.5 243.614 99.9788L247.433 97.0377C248.121 96.5162 248.247 95.5358 247.725 94.8475Z" fill="#FFE8DF"/>
<path d="M249.665 97.1834C249.144 96.4951 248.163 96.3699 247.474 96.8914L243.635 99.8534C242.946 100.375 242.821 101.355 243.342 102.044C243.864 102.732 244.845 102.857 245.534 102.336L249.352 99.3945C250.062 98.8522 250.187 97.8718 249.665 97.1834Z" fill="#FFE8DF"/>
<path d="M251.585 99.6639C251.063 98.9756 250.083 98.8504 249.394 99.3719L245.555 102.334C244.866 102.855 244.741 103.836 245.262 104.524C245.784 105.212 246.765 105.338 247.453 104.816L251.272 101.875C251.982 101.333 252.107 100.352 251.585 99.6639Z" fill="#FFE8DF"/>
<path d="M253.443 102.043C252.921 101.354 251.94 101.229 251.252 101.751L247.433 104.692C246.744 105.213 246.619 106.194 247.141 106.882C247.662 107.57 248.643 107.696 249.332 107.174L253.151 104.233C253.86 103.712 253.985 102.731 253.443 102.043Z" fill="#FFE8DF"/>
</svg>
