<svg width="325" height="148" viewBox="0 0 325 148" fill="none" xmlns="http://www.w3.org/2000/svg">
<path d="M263 82C263 83.1046 262.105 84 261 84C259.895 84 259 83.1046 259 82C259 80.8954 259.895 80 261 80C262.105 80 263 80.8954 263 82ZM259.494 82C259.494 82.8318 260.168 83.506 261 83.506C261.832 83.506 262.506 82.8318 262.506 82C262.506 81.1682 261.832 80.494 261 80.494C260.168 80.494 259.494 81.1682 259.494 82Z" fill="white"/>
<rect width="325" height="148" rx="5" fill="#DDEFFF"/>
<path d="M26.6094 67.125H25.0156V61.8047H24.1484V66.6094H22.6133V56.5312H24.1484V60.4688H25.0156V56.3672H26.6094V67.125ZM17.5508 57.5977H21.5586V58.9453H19.25V63.3457C19.7422 63.3379 20.2109 63.3164 20.6562 63.2812C21.1055 63.2461 21.5625 63.1875 22.0273 63.1055L22.1445 64.4648C21.5391 64.582 20.9453 64.6602 20.3633 64.6992C19.7852 64.7344 19.1055 64.7539 18.3242 64.7578H17.5508V57.5977ZM36.7344 67.125H35.0234V56.3672H36.7344V67.125ZM27.6523 63.9961C28.5586 63.5703 29.3008 63.1035 29.8789 62.5957C30.457 62.0879 30.8965 61.5254 31.1973 60.9082C31.502 60.2871 31.6953 59.582 31.7773 58.793H28.2617V57.4805H33.5C33.4961 58.6602 33.3457 59.7227 33.0488 60.668C32.7559 61.6133 32.2441 62.4805 31.5137 63.2695C30.7871 64.0547 29.793 64.7422 28.5312 65.332L27.6523 63.9961ZM41.0352 56.8125C41.4805 56.8125 41.8945 56.8926 42.2773 57.0527C42.6602 57.209 42.9824 57.4316 43.2441 57.7207C43.5098 58.0059 43.6953 58.3359 43.8008 58.7109H45.4531V56.3672H47.1289V62.1562H45.4531V60.0352H43.8066C43.7051 60.418 43.5215 60.7559 43.2559 61.0488C42.9941 61.3418 42.6699 61.5703 42.2832 61.7344C41.9004 61.8984 41.4844 61.9805 41.0352 61.9805C40.4883 61.9805 39.9941 61.8691 39.5527 61.6465C39.1152 61.4199 38.7715 61.1094 38.5215 60.7148C38.2715 60.3164 38.1484 59.8711 38.1523 59.3789C38.1484 58.8945 38.2715 58.457 38.5215 58.0664C38.7715 57.6719 39.1152 57.3652 39.5527 57.1465C39.9941 56.9238 40.4883 56.8125 41.0352 56.8125ZM39.7461 59.3789C39.7461 59.7422 39.8633 60.0312 40.0977 60.2461C40.332 60.457 40.6387 60.5625 41.0176 60.5625C41.3965 60.5625 41.7031 60.457 41.9375 60.2461C42.1719 60.0352 42.2891 59.7461 42.2891 59.3789C42.2891 59.0156 42.1738 58.7305 41.9434 58.5234C41.7129 58.3125 41.4102 58.207 41.0352 58.207C40.6484 58.207 40.3359 58.3105 40.0977 58.5176C39.8633 58.7246 39.7461 59.0117 39.7461 59.3789ZM39.8867 62.6016H41.5391V63.5273H45.4531V62.6016H47.1289V67.0078H39.8867V62.6016ZM45.4531 65.6484V64.8164H41.5391V65.6484H45.4531ZM54.3533 57.624V58.272C54.3413 59.148 54.3413 60.504 54.0413 62.376L52.9373 62.304C53.2133 60.612 53.2373 59.376 53.2493 58.512H48.9773V57.624H54.3533ZM48.4013 63.816C49.0493 63.816 49.7813 63.816 50.5373 63.792V60.624H51.6413V63.768C52.7573 63.72 53.8973 63.648 54.9533 63.528L55.0253 64.344C52.8293 64.704 50.3933 64.752 48.5213 64.728L48.4013 63.816ZM55.5533 66.984V56.496H56.6813V60.84H58.2893V61.776H56.6813V66.984H55.5533ZM71.5039 62.5547H67.4258V63.2344C68.3477 63.3125 69.0625 63.5176 69.5703 63.8496C70.0781 64.1816 70.332 64.6211 70.332 65.168C70.332 65.582 70.1816 65.9355 69.8809 66.2285C69.5801 66.5254 69.1484 66.75 68.5859 66.9023C68.0234 67.0547 67.3555 67.1289 66.582 67.125C65.7969 67.1289 65.1191 67.0547 64.5488 66.9023C63.9824 66.75 63.5488 66.5273 63.248 66.2344C62.9473 65.9414 62.7969 65.5859 62.7969 65.168C62.7969 64.6211 63.0547 64.1816 63.5703 63.8496C64.0859 63.5176 64.8164 63.3125 65.7617 63.2344V62.5547H61.6953V61.207H71.5039V62.5547ZM62.082 59.5547C62.9961 59.4805 63.7188 59.3125 64.25 59.0508C64.7852 58.7891 65.1367 58.4844 65.3047 58.1367H62.5859V56.8125H70.6133V58.1367H67.8652C68.0332 58.4883 68.3828 58.7949 68.9141 59.0566C69.4492 59.3145 70.1875 59.4805 71.1289 59.5547L70.543 60.8789C69.5273 60.793 68.6855 60.5801 68.0176 60.2402C67.3535 59.8965 66.875 59.4648 66.582 58.9453C66.2891 59.4648 65.8125 59.8965 65.1523 60.2402C64.4961 60.5801 63.6602 60.793 62.6445 60.8789L62.082 59.5547ZM64.5195 65.168C64.5078 65.6289 65.1777 65.8594 66.5293 65.8594C67.2363 65.8594 67.7637 65.8027 68.1113 65.6895C68.4629 65.5762 68.6406 65.4023 68.6445 65.168C68.6406 64.9336 68.4688 64.7617 68.1289 64.6523C67.793 64.5391 67.2773 64.4805 66.582 64.4766C65.8711 64.4805 65.3477 64.5391 65.0117 64.6523C64.6797 64.7617 64.5156 64.9336 64.5195 65.168ZM81.8984 65.8828H72.0664V64.5352H76.0859V62.168H77.7617V64.5352H81.8984V65.8828ZM72.2539 61.1719C73.082 61.0508 73.7773 60.8105 74.3398 60.4512C74.9062 60.0879 75.3262 59.6641 75.5996 59.1797C75.873 58.6914 76.0117 58.1953 76.0156 57.6914V56.9531H77.8203V57.6914C77.8164 58.2031 77.9512 58.7012 78.2246 59.1855C78.498 59.6699 78.9199 60.0918 79.4902 60.4512C80.0605 60.8105 80.7656 61.0508 81.6055 61.1719L80.8906 62.5781C79.9453 62.4141 79.1367 62.1074 78.4648 61.6582C77.793 61.209 77.2754 60.6543 76.9121 59.9941C76.5527 60.6504 76.0391 61.2051 75.3711 61.6582C74.7031 62.1074 73.9023 62.4141 72.9688 62.5781L72.2539 61.1719ZM91.5195 67.125H89.8086V56.3672H91.5195V67.125ZM82.4375 63.9961C83.3438 63.5703 84.0859 63.1035 84.6641 62.5957C85.2422 62.0879 85.6816 61.5254 85.9824 60.9082C86.2871 60.2871 86.4805 59.582 86.5625 58.793H83.0469V57.4805H88.2852C88.2812 58.6602 88.1309 59.7227 87.834 60.668C87.541 61.6133 87.0293 62.4805 86.2988 63.2695C85.5723 64.0547 84.5781 64.7422 83.3164 65.332L82.4375 63.9961ZM95.8203 56.8125C96.2656 56.8125 96.6797 56.8926 97.0625 57.0527C97.4453 57.209 97.7676 57.4316 98.0293 57.7207C98.2949 58.0059 98.4805 58.3359 98.5859 58.7109H100.238V56.3672H101.914V62.1562H100.238V60.0352H98.5918C98.4902 60.418 98.3066 60.7559 98.041 61.0488C97.7793 61.3418 97.4551 61.5703 97.0684 61.7344C96.6855 61.8984 96.2695 61.9805 95.8203 61.9805C95.2734 61.9805 94.7793 61.8691 94.3379 61.6465C93.9004 61.4199 93.5566 61.1094 93.3066 60.7148C93.0566 60.3164 92.9336 59.8711 92.9375 59.3789C92.9336 58.8945 93.0566 58.457 93.3066 58.0664C93.5566 57.6719 93.9004 57.3652 94.3379 57.1465C94.7793 56.9238 95.2734 56.8125 95.8203 56.8125ZM94.5312 59.3789C94.5312 59.7422 94.6484 60.0312 94.8828 60.2461C95.1172 60.457 95.4238 60.5625 95.8027 60.5625C96.1816 60.5625 96.4883 60.457 96.7227 60.2461C96.957 60.0352 97.0742 59.7461 97.0742 59.3789C97.0742 59.0156 96.959 58.7305 96.7285 58.5234C96.498 58.3125 96.1953 58.207 95.8203 58.207C95.4336 58.207 95.1211 58.3105 94.8828 58.5176C94.6484 58.7246 94.5312 59.0117 94.5312 59.3789ZM94.6719 62.6016H96.3242V63.5273H100.238V62.6016H101.914V67.0078H94.6719V62.6016ZM100.238 65.6484V64.8164H96.3242V65.6484H100.238ZM111.994 56.496V67.008H110.866V56.496H111.994ZM103.642 60.96C103.642 58.716 104.782 57.288 106.354 57.288C107.926 57.288 109.078 58.716 109.066 60.96C109.078 63.228 107.926 64.656 106.354 64.656C104.782 64.656 103.642 63.228 103.642 60.96ZM104.722 60.96C104.722 62.628 105.394 63.66 106.354 63.648C107.326 63.66 107.998 62.628 107.986 60.96C107.998 59.316 107.326 58.284 106.354 58.272C105.394 58.284 104.722 59.316 104.722 60.96ZM25.64 70.496V73.208H27.152V74.168H25.64V76.832H24.536V70.496H25.64ZM17.408 72.464V71.552H19.976V70.424H21.08V71.552H23.648V72.464H17.408ZM17.984 74.792C17.972 73.664 18.992 72.908 20.528 72.92C22.04 72.908 23.072 73.664 23.072 74.792C23.072 75.92 22.04 76.664 20.528 76.664C18.992 76.664 17.972 75.92 17.984 74.792ZM18.92 80.864V77.384H25.64V80.864H18.92ZM19.04 74.792C19.04 75.44 19.64 75.824 20.528 75.824C21.416 75.824 22.016 75.44 22.016 74.792C22.016 74.156 21.416 73.76 20.528 73.76C19.64 73.76 19.04 74.156 19.04 74.792ZM20.024 79.952H24.536V78.248H20.024V79.952ZM30.3471 71.744C30.3471 74.084 30.0591 76.52 28.5951 78.584L27.7311 78.08C28.9551 76.448 29.3151 74.624 29.3991 72.656H27.9711V71.744H30.3471ZM30.0831 78.704C31.4391 76.892 31.6911 74.684 31.7271 72.656H30.6831V71.744H32.6991C32.6991 72.632 32.6751 73.58 32.5671 74.552H33.7791V70.76H34.8351V80.48H33.7791V75.464H32.4231C32.1951 76.772 31.7631 78.068 30.9471 79.208L30.0831 78.704ZM35.7711 80.984V70.496H36.8511V80.984H35.7711ZM46.3839 71.408V76.328H41.4639V71.408H46.3839ZM42.5439 75.44H45.2799V72.32H42.5439V75.44ZM42.6639 80.768V77.432H43.7679V79.88H49.7679V80.768H42.6639ZM48.2079 78.176V70.496H49.3119V73.64H50.8239V74.552H49.3119V78.176H48.2079ZM61.027 74.792V75.68H51.427V74.792H61.027ZM52.579 77.384V76.52H59.803V79.064H53.683V80H60.091V80.888H52.603V78.248H58.699V77.384H52.579ZM52.675 74.024V70.808H59.779V71.696H53.803V73.136H59.875V74.024H52.675ZM64.6541 71.288C66.0821 71.288 67.1141 72.5 67.2701 74.432H69.4541V70.496H70.5581V81.008H69.4541V75.344H67.2821C67.1621 77.384 66.1181 78.656 64.6541 78.656C63.0821 78.656 61.9781 77.228 61.9901 74.96C61.9781 72.716 63.0821 71.288 64.6541 71.288ZM63.0461 74.96C63.0461 76.628 63.6941 77.66 64.6541 77.648C65.6021 77.66 66.2501 76.628 66.2621 74.96C66.2501 73.316 65.6021 72.284 64.6541 72.272C63.6941 72.284 63.0461 73.316 63.0461 74.96ZM80.3532 70.496V74.672H81.9852V75.608H80.3532V80.984H79.2492V70.496H80.3532ZM72.1692 78.176C74.8092 76.868 76.2372 74.984 76.4772 72.536H72.6972V71.6H77.6172C77.6052 74.636 76.2612 77.348 72.7932 79.04L72.1692 78.176ZM91.0363 73.568V74.456H83.8123V70.88H84.9163V73.568H91.0363ZM82.5403 76.664V75.776H92.1403V76.664H82.5403ZM83.7402 80.744V77.672H84.8443V79.832H91.1083V80.744H83.7402ZM105.324 76.6953H95.4922V75.3711H99.582V74.5625H96.6641V70.8359H104.164V72.1484H98.3516V73.2383H104.211V74.5625H101.246V75.3711H105.324V76.6953ZM96.5938 79.1562C96.5938 78.7305 96.7441 78.3691 97.0449 78.0723C97.3457 77.7715 97.7793 77.543 98.3457 77.3867C98.916 77.2305 99.5938 77.1523 100.379 77.1523C101.156 77.1523 101.826 77.2305 102.389 77.3867C102.951 77.543 103.381 77.7715 103.678 78.0723C103.979 78.3691 104.129 78.7305 104.129 79.1562C104.129 79.5742 103.979 79.9316 103.678 80.2285C103.381 80.5254 102.951 80.752 102.389 80.9082C101.826 81.0684 101.156 81.1484 100.379 81.1484C99.5938 81.1484 98.918 81.0684 98.3516 80.9082C97.7852 80.752 97.3496 80.5254 97.0449 80.2285C96.7441 79.9316 96.5938 79.5742 96.5938 79.1562ZM98.3164 79.1562C98.3125 79.4023 98.4727 79.582 98.7969 79.6953C99.1211 79.8047 99.6289 79.8594 100.32 79.8594C101.043 79.8594 101.576 79.8047 101.92 79.6953C102.264 79.582 102.438 79.4023 102.441 79.1562C102.438 78.9102 102.266 78.7285 101.926 78.6113C101.586 78.4902 101.07 78.4297 100.379 78.4297C99.6719 78.4297 99.1484 78.4902 98.8086 78.6113C98.4727 78.7285 98.3086 78.9102 98.3164 79.1562ZM114.43 73.332H115.824V74.7148H114.43V78.3008H112.742V70.3789H114.43V73.332ZM106.145 71.1406H107.809V72.6172H109.719V71.1406H111.406V76.625H106.145V71.1406ZM107.375 77.4805H109.062V79.6016H114.781V80.9492H107.375V77.4805ZM109.719 75.3125V73.9062H107.809V75.3125H109.719ZM120.418 71.7617C120.41 72.5273 120.598 73.2012 120.98 73.7832C121.363 74.3613 121.973 74.7773 122.809 75.0312L121.918 76.3438C120.84 75.9805 120.064 75.3184 119.592 74.3574C119.346 74.9043 119.006 75.377 118.572 75.7754C118.143 76.1699 117.617 76.4688 116.996 76.6719L116.105 75.3242C116.715 75.1367 117.213 74.8652 117.6 74.5098C117.986 74.1504 118.266 73.7441 118.438 73.291C118.613 72.8379 118.703 72.3555 118.707 71.8438V70.918H120.418V71.7617ZM117.91 79.0273C117.91 78.5898 118.059 78.2129 118.355 77.8965C118.656 77.5762 119.086 77.334 119.645 77.1699C120.203 77.002 120.863 76.918 121.625 76.918C122.395 76.918 123.061 77.002 123.623 77.1699C124.186 77.334 124.617 77.5742 124.918 77.8906C125.223 78.207 125.375 78.5859 125.375 79.0273C125.375 79.4688 125.225 79.8477 124.924 80.1641C124.623 80.4805 124.191 80.7207 123.629 80.8848C123.066 81.0488 122.398 81.1289 121.625 81.125C120.859 81.1289 120.197 81.0488 119.639 80.8848C119.084 80.7207 118.656 80.4805 118.355 80.1641C118.059 79.8477 117.91 79.4688 117.91 79.0273ZM119.586 79.0273C119.586 79.5586 120.266 79.8242 121.625 79.8242C122.996 79.8242 123.688 79.5586 123.699 79.0273C123.695 78.75 123.521 78.5469 123.178 78.418C122.834 78.2852 122.316 78.2188 121.625 78.2188C120.945 78.2188 120.436 78.2852 120.096 78.418C119.756 78.5508 119.586 78.7539 119.586 79.0273ZM121.766 72.2305H123.664V70.3672H125.34V76.6484H123.664V73.6133H121.766V72.2305ZM132.734 72.4062H130.678C130.713 73.0312 130.928 73.5898 131.322 74.082C131.717 74.5703 132.312 74.9297 133.109 75.1602L132.312 76.4844C131.742 76.3164 131.252 76.0703 130.842 75.7461C130.436 75.4219 130.109 75.0352 129.863 74.5859C129.613 75.125 129.271 75.5879 128.838 75.9746C128.408 76.3613 127.883 76.6523 127.262 76.8477L126.406 75.5234C126.969 75.3477 127.436 75.0996 127.807 74.7793C128.182 74.4551 128.461 74.0898 128.645 73.6836C128.828 73.2773 128.932 72.8516 128.955 72.4062H126.852V71.0703H132.734V72.4062ZM127.906 79.0039C127.906 78.5664 128.055 78.1895 128.352 77.873C128.652 77.5566 129.082 77.3145 129.641 77.1465C130.199 76.9785 130.859 76.8945 131.621 76.8945C132.367 76.8945 133.016 76.9785 133.566 77.1465C134.117 77.3145 134.539 77.5566 134.832 77.873C135.129 78.1895 135.277 78.5664 135.277 79.0039C135.277 79.4414 135.129 79.8203 134.832 80.1406C134.535 80.4609 134.111 80.7051 133.561 80.873C133.014 81.0449 132.367 81.1289 131.621 81.125C130.863 81.1289 130.203 81.0449 129.641 80.873C129.082 80.7051 128.652 80.4609 128.352 80.1406C128.055 79.8203 127.906 79.4414 127.906 79.0039ZM129.594 79.0039C129.59 79.2852 129.758 79.4922 130.098 79.625C130.438 79.7578 130.945 79.8242 131.621 79.8242C132.289 79.8242 132.787 79.7578 133.115 79.625C133.443 79.4922 133.609 79.2852 133.613 79.0039C133.609 78.7305 133.447 78.5293 133.127 78.4004C132.807 78.2715 132.32 78.207 131.668 78.207C130.973 78.207 130.451 78.2715 130.104 78.4004C129.76 78.5254 129.59 78.7266 129.594 79.0039ZM133.484 70.3672H135.172V72.793H136.566V74.1523H135.172V76.7188H133.484V70.3672Z" fill="#224CAC"/>
<path d="M208 90C208 91.1046 207.105 92 206 92C204.895 92 204 91.1046 204 90C204 88.8954 204.895 88 206 88C207.105 88 208 88.8954 208 90ZM204.494 90C204.494 90.8318 205.168 91.506 206 91.506C206.832 91.506 207.506 90.8318 207.506 90C207.506 89.1682 206.832 88.494 206 88.494C205.168 88.494 204.494 89.1682 204.494 90Z" fill="white"/>
<path d="M314 83C314 84.1046 313.105 85 312 85C310.895 85 310 84.1046 310 83C310 81.8954 310.895 81 312 81C313.105 81 314 81.8954 314 83ZM310.494 83C310.494 83.8318 311.168 84.506 312 84.506C312.832 84.506 313.506 83.8318 313.506 83C313.506 82.1682 312.832 81.494 312 81.494C311.168 81.494 310.494 82.1682 310.494 83Z" fill="white"/>
<path d="M194 118.5C194 119.328 193.328 120 192.5 120C191.672 120 191 119.328 191 118.5C191 117.672 191.672 117 192.5 117C193.328 117 194 117.672 194 118.5ZM191.37 118.5C191.37 119.124 191.876 119.63 192.5 119.63C193.124 119.63 193.63 119.124 193.63 118.5C193.63 117.876 193.124 117.37 192.5 117.37C191.876 117.37 191.37 117.876 191.37 118.5Z" fill="white"/>
<rect x="303.865" y="68.7305" width="2.63719" height="2.63719" transform="rotate(45 303.865 68.7305)" fill="white"/>
<path d="M55.5659 122.196V108.816H58.8741V119.255H66.005V122.196H55.5659Z" fill="#0060B0"/>
<path d="M90.6322 119.698L89.8235 118.521L89.603 118.154L89.2354 118.301H89.1619C88.5738 118.595 88.1327 118.815 87.6916 118.963C86.9565 119.257 86.2213 119.33 85.5597 119.33C84.1629 119.33 83.1337 118.889 82.3986 117.933C81.7369 117.125 81.3693 116.169 81.3693 114.993C81.3693 113.816 81.6634 112.861 82.3986 112.052C83.1337 111.17 84.2364 110.729 85.7067 110.729C86.3683 110.729 86.9565 110.802 87.3975 111.023C87.6181 111.096 87.9857 111.317 88.3532 111.538L88.5738 111.685L88.8678 111.905L89.1619 111.758L90.4852 110.949L90.9998 110.655L90.5587 110.214C90.1176 109.7 89.5295 109.332 88.7208 109.038C87.8386 108.67 86.8094 108.523 85.7067 108.523C83.4278 108.523 81.5164 109.185 80.1931 110.582C78.8699 111.832 78.2817 113.375 78.2817 115.213C78.2817 117.051 78.8699 118.595 80.1196 119.845C81.4429 121.241 83.2807 121.903 85.5597 121.903C86.5889 121.903 87.6181 121.756 88.5003 121.536C89.3824 121.315 90.0441 120.947 90.5587 120.506L90.9262 120.212L90.6322 119.698Z" fill="#0060B0"/>
<path d="M55.9333 108.302C55.9333 108.302 71.6655 97.3479 90.2647 109.037C89.7501 108.743 73.8709 96.0982 55.9333 108.302Z" fill="#0060B0"/>
<path d="M69.3128 117.343C69.3128 118.078 69.5333 118.666 69.9744 119.034C70.2685 119.328 70.8566 119.916 72.1798 119.769C72.6944 119.695 73.6501 119.622 74.1647 119.034C74.6058 118.519 74.6058 117.857 74.6058 117.637C74.6058 117.122 74.3118 116.755 73.9442 116.461C73.6501 116.24 72.9885 116.019 71.8858 115.725C71.1506 115.578 70.4155 115.358 69.8274 115.137C69.0922 114.843 68.5041 114.476 67.9895 114.108C67.6219 113.814 67.4014 113.446 67.1808 113.079C67.0338 112.711 66.9603 112.344 66.9603 111.903C66.9603 110.726 67.4749 109.771 68.5041 108.962C69.5333 108.227 70.8566 107.859 72.4739 107.859C73.9442 107.859 75.1939 108.227 76.0761 108.889C77.0318 109.624 77.6199 110.653 77.6934 111.976H74.3853C74.3118 111.388 74.1647 110.947 73.7972 110.653C73.4296 110.359 72.9885 110.212 72.4004 110.212C71.7387 110.212 71.2241 110.359 70.9301 110.653C70.5625 110.947 70.4155 111.315 70.4155 111.829C70.4155 112.05 70.489 112.123 70.489 112.27C70.489 112.344 70.636 112.491 70.7095 112.638C70.9301 112.785 71.2241 112.932 71.6652 113.079C71.8858 113.152 72.3269 113.226 72.915 113.373L74.1647 113.667C75.4145 114.035 76.4437 114.476 77.0318 115.211C77.7669 116.019 77.9875 117.049 77.914 117.563C77.914 118.887 77.1788 120.357 75.8556 121.239C74.4588 122.121 72.3269 122.342 71.0771 122.268C69.3863 122.121 67.9895 121.018 67.6954 120.724C67.2544 120.283 66.1516 118.593 66.0781 117.343H69.3128Z" fill="#009475"/>
<path d="M34.8056 129.549H33.4824V131.901C33.4824 132.122 33.7029 132.342 33.9235 132.342H38.4814V131.681H34.8056V129.549ZM69.7251 125.799H68.6959V125.358H67.5196V125.799H66.4169V126.388H69.7251V125.799ZM82.4431 129.843H83.5458V125.138H82.4431V126.314H81.7815V126.976H82.5166L82.4431 129.843ZM40.8338 126.535C40.3192 126.755 39.8781 126.902 39.29 126.976L39.6576 127.564C40.3928 127.49 41.2014 127.196 41.3484 127.123C41.6425 126.976 41.863 126.829 42.1571 126.535C42.3776 126.755 42.6717 126.976 42.9658 127.049C43.1128 127.123 43.9215 127.49 44.6566 127.49L45.0242 126.902C44.4361 126.829 43.995 126.682 43.4804 126.461C43.4804 126.461 42.8922 126.241 42.7452 125.799H44.7301V125.211H39.4371V125.873H41.4955C41.3484 126.314 40.8338 126.535 40.8338 126.535ZM30.5418 124.991V125.946H29.8066C29.8066 125.726 29.8066 125.579 29.8066 125.579C29.8066 125.358 29.7331 125.138 29.3656 125.138H26.2779V125.799H28.5569C28.7774 128.225 26.0574 128.299 26.0574 128.299L26.2779 128.887C28.2628 128.814 29.0715 127.858 29.0715 127.858C29.145 127.784 29.2185 127.711 29.2185 127.637H30.6153V128.961C30.2477 128.814 29.8802 128.74 29.5126 128.74C28.1893 128.74 27.0866 129.622 27.0866 130.651C27.0866 131.681 28.1893 132.563 29.5126 132.563C30.8359 132.563 31.9386 131.681 31.9386 130.651V124.991H30.5418ZM29.5126 127.049C29.5861 126.902 29.6596 126.755 29.6596 126.608H30.4683V127.049H29.5126ZM29.3656 132.048C28.7039 132.048 28.1893 131.46 28.1893 130.725C28.1893 129.99 28.7039 129.402 29.3656 129.402C30.0272 129.402 30.5418 129.99 30.5418 130.725C30.5418 131.46 30.0272 132.048 29.3656 132.048ZM21.279 127.784C21.426 128.299 21.8671 129.255 23.3374 129.549L23.5579 128.961C21.7936 128.299 21.9406 126.241 21.9406 126.241V126.093H23.2638V125.432H19.2941V126.093H20.6173V126.241C20.6173 126.241 20.7644 128.299 19 128.961L19.2205 129.549C20.6908 129.255 21.1319 128.299 21.279 127.784ZM39.4371 128.593H41.6425V129.034C41.3484 129.108 41.1279 129.255 40.8338 129.402C40.3927 129.769 40.2457 130.21 40.2457 130.725C40.2457 131.24 40.4663 131.754 40.8338 132.048C41.2014 132.416 41.716 132.563 42.2306 132.563C42.7452 132.563 43.2598 132.416 43.6274 132.048C44.0685 131.681 44.289 131.24 44.289 130.725C44.289 130.21 44.0685 129.769 43.6274 129.402C43.4068 129.181 43.1128 129.108 42.8922 129.034V128.814V128.593H45.1712V128.005H39.4371V128.593ZM42.9658 129.916C43.1863 130.137 43.2598 130.431 43.2598 130.798C43.2598 131.166 43.1863 131.46 42.9658 131.681C42.7452 131.901 42.5247 132.048 42.2306 132.048C41.9366 132.048 41.716 131.901 41.4955 131.681C41.2749 131.46 41.2014 131.166 41.2014 130.798C41.2014 130.431 41.2749 130.137 41.4955 129.916C41.716 129.696 41.9366 129.549 42.2306 129.549C42.5247 129.549 42.8187 129.696 42.9658 129.916ZM23.9255 126.682H22.7492V127.343H23.999V130.504H25.3223V125.064H23.9255V126.682ZM36.2759 128.74H34.0705V127.637H35.0262H36.2759V125.873C36.2759 125.579 36.0554 125.432 35.8348 125.432H32.8207V126.093H35.0262V127.049H32.8207V128.961C32.8207 129.255 33.0413 129.402 33.2618 129.402H36.2759V128.74ZM21.3525 129.475H20.1027V131.901C20.1027 132.122 20.2497 132.342 20.5438 132.342H25.2487V131.681H21.3525V129.475ZM37.2316 126.02H36.57V126.682H37.2316V127.196H36.57V127.858H37.2316V130.21H38.4814V125.064H37.2316V126.02ZM81.2669 129.622H80.0906V131.607C80.0906 131.828 80.1642 131.975 80.2377 132.122C80.3112 132.195 80.4582 132.269 80.6052 132.269H84.9426V131.681H81.2669V129.622ZM83.8399 129.843H84.9426V125.138H83.8399V129.843ZM49.5086 129.622H48.2588V131.681H45.7593V132.342H52.0081V131.681H49.5086V129.622ZM89.9416 129.255H87.0745V127.931H89.0594V127.27H87.0745V125.946H89.574V125.285H85.9718V129.181C85.9718 129.402 86.0453 129.622 86.1188 129.696C86.1924 129.769 86.3394 129.843 86.4864 129.843H90.0151H90.0886L89.9416 129.255ZM77.0765 125.946H76.4884V126.535H77.0765V126.976H76.4884V127.564H77.0765V129.255H73.1067V129.916H77.0765V132.122H78.2528V124.844H77.0765V125.946ZM91.9265 124.917H90.8238V127.27H89.574V127.858H90.7503V132.195H91.853L91.9265 124.917ZM80.5317 128.078C80.5317 128.152 80.6052 128.225 80.6788 128.299C80.8258 128.519 81.855 129.255 82.0755 129.255L82.2961 128.667C81.855 128.519 81.4139 127.931 81.2669 127.49C81.1198 127.123 81.1198 126.314 81.0463 125.726V125.358H80.9728H80.0171V125.726C80.0171 126.314 79.9436 127.196 79.7966 127.49C79.7231 127.784 79.282 128.446 78.8409 128.667L79.0614 129.255C79.429 129.255 80.0171 128.74 80.1642 128.519C80.3847 128.372 80.4582 128.225 80.5317 128.078ZM57.5217 132.416H58.6979V125.064H57.5217V132.416ZM56.1984 125.285H52.8167V125.946H55.3162C55.3162 126.461 55.0222 128.446 53.7724 129.696C53.6254 129.843 53.0373 130.284 52.4491 130.431L52.7432 131.166C53.6989 130.872 54.287 130.431 54.5811 130.137C55.9043 129.034 56.4924 127.049 56.4924 125.799C56.4924 125.799 56.4924 125.505 56.4189 125.358C56.4189 125.211 56.1984 125.285 56.1984 125.285ZM76.1944 129.181V128.593H74.0624V127.564H76.1944V125.873C76.1944 125.652 75.9738 125.432 75.7533 125.432H72.8127V126.02H74.9446V126.976H72.8127V128.74C72.8127 128.961 73.0332 129.181 73.2538 129.181H76.1944ZM50.4643 128.078C50.0232 127.49 49.5086 126.314 49.5086 125.652V125.211H49.435H48.3323V125.652C48.3323 126.314 47.5972 127.637 47.3031 128.078C47.0826 128.446 46.2004 129.255 45.7593 129.475L46.0534 130.063C46.2739 130.063 47.2296 129.549 47.4502 129.402C48.1118 128.814 48.5529 128.152 48.9204 127.564C49.2145 128.225 49.7291 128.814 50.3907 129.475C50.6113 129.696 51.567 130.137 51.861 130.137L52.0816 129.475C51.567 129.255 50.7583 128.593 50.4643 128.078ZM70.7543 126.093H70.0191V126.682H70.7543V127.123H70.0191V127.711H70.6808V129.843V129.99H68.0342V129.181C68.4753 129.181 68.8429 129.034 69.2105 128.814C69.578 128.519 69.7251 128.225 69.7251 127.784C69.7251 127.343 69.578 127.049 69.2105 126.755C68.8429 126.535 68.4753 126.388 68.0342 126.388C67.5932 126.388 67.1521 126.535 66.858 126.755C66.4904 127.049 66.3434 127.343 66.3434 127.784C66.3434 128.225 66.4904 128.519 66.858 128.814C67.0785 129.034 67.3726 129.108 67.6667 129.181H66.858V131.46C66.858 131.681 66.9315 131.901 67.005 132.048C67.0786 132.122 67.4461 132.195 67.5932 132.195H71.2689C71.4159 132.195 71.71 132.122 71.7835 132.048C71.857 131.975 71.9305 131.754 71.9305 131.46V125.064H70.8278V126.093H70.7543ZM67.4461 128.519C67.2991 128.299 67.1521 128.078 67.1521 127.858C67.1521 127.564 67.2256 127.343 67.4461 127.196C67.5932 127.049 67.8137 126.902 68.0342 126.902C68.2548 126.902 68.4753 126.976 68.6224 127.196C68.7694 127.343 68.9164 127.564 68.9164 127.858C68.9164 128.152 68.8429 128.372 68.6224 128.519C68.4753 128.667 68.2548 128.814 68.0342 128.814C67.8137 128.814 67.6667 128.667 67.4461 128.519ZM70.6808 131.46H68.0342V130.872H70.6808V131.46ZM64.285 126.093H63.2558C63.1823 126.02 63.1088 125.873 62.9617 125.799C62.5942 125.505 62.1531 125.358 61.6385 125.358C61.1239 125.358 60.6828 125.505 60.3152 125.799C59.9476 126.167 59.7271 126.535 59.7271 127.049C59.7271 127.564 59.9476 128.005 60.3152 128.299C60.6828 128.593 61.1239 128.74 61.6385 128.74C62.1531 128.74 62.5942 128.593 62.9617 128.299C63.4028 127.931 63.5499 127.564 63.5499 127.049C63.5499 126.976 63.5499 126.902 63.5499 126.829H64.285V129.181V130.063H61.712V129.181H60.5358V131.46C60.5358 131.681 60.6093 131.901 60.6828 132.048C60.7563 132.122 61.0504 132.195 61.2709 132.195H64.8731C65.0201 132.195 65.3142 132.122 65.3877 132.048C65.4612 131.975 65.5347 131.754 65.5347 131.46V130.063V124.844H64.3585V126.093H64.285ZM62.3001 127.931C62.0796 128.152 61.859 128.299 61.6385 128.299C61.4179 128.299 61.1239 128.152 60.9768 127.931C60.7563 127.711 60.6828 127.417 60.6828 127.123C60.6828 126.829 60.7563 126.535 60.9768 126.314C61.1974 126.093 61.4179 126.02 61.6385 126.02C61.9325 126.02 62.1531 126.093 62.3001 126.314C62.5206 126.535 62.5942 126.829 62.5942 127.123C62.5942 127.417 62.5206 127.711 62.3001 127.931ZM64.285 131.46H61.712V130.872H64.285V131.46Z" fill="#0060B0"/>
<path d="M48.1406 108.67C51.9634 108.302 54.3159 108.376 54.3159 108.376V104.773H48.1406V108.67Z" fill="#0060B0"/>
<path d="M45.3473 108.967C41.7451 109.408 37.1872 110.29 32.1882 111.761V104.777H38.3635V109.776L40.4954 104.703H47.1117L45.3473 108.967Z" fill="#0060B0"/>
<path d="M30.4238 112.275C26.6011 113.525 22.4842 115.142 18.3674 117.201V104.703H30.7179V109.849H24.5427V112.202L30.4238 112.275Z" fill="#0060B0"/>
<path d="M32.1885 122.349H38.3637V115.66L41.5248 122.349H47.4795L43.2892 113.601L45.0535 109.484C41.5248 109.925 37.114 110.808 32.1885 112.278V122.349Z" fill="#009475"/>
<path d="M18.2939 122.346H24.4692V117.494H30.6444V112.789C26.8216 113.965 22.6313 115.656 18.2939 117.715V122.346Z" fill="#009475"/>
<path d="M48.1409 109.114V122.346H54.3161V108.82C53.9485 108.746 51.6696 108.746 48.1409 109.114Z" fill="#009475"/>
<rect x="16" y="124" width="23" height="11" fill="#DDEFFF"/>
<path d="M31.1204 130.24V125.113H29.7689V125.949H29.0096C29.0247 125.759 29.0096 125.632 29.0096 125.632C29.0247 125.455 28.9184 125.24 28.5692 125.24H25.2738V125.822H27.658C27.901 127.987 25.0156 128.05 25.0156 128.05L25.2282 128.582C27.2935 128.544 28.1439 127.67 28.1439 127.67C28.2047 127.62 28.2654 127.556 28.3262 127.493H29.7689V128.708C29.4196 128.582 29.0096 128.506 28.5843 128.506C27.1872 128.506 26.0331 129.29 26.0331 130.24C26.0331 131.202 27.172 131.974 28.5843 131.974C29.9815 131.974 31.1052 131.202 31.1204 130.253V130.24ZM28.721 126.923C28.7818 126.784 28.8425 126.658 28.8881 126.531H29.7689V126.923H28.721ZM28.5692 131.455C27.901 131.455 27.3543 130.923 27.3543 130.253C27.3543 129.594 27.901 129.05 28.5692 129.05C29.2373 129.05 29.784 129.582 29.784 130.253C29.7689 130.923 29.2373 131.455 28.5692 131.455Z" fill="#0060B0"/>
<path d="M22.1762 125.519H20.7183V125H19.3516V125.519H18V126.101H22.1762V125.519Z" fill="#0060B0"/>
<path d="M22.1154 127.837C22.1154 126.989 21.1891 126.293 20.0653 126.293C18.9263 126.293 18 126.977 18 127.837C18 128.685 18.9263 129.382 20.0501 129.382C21.1891 129.369 22.1154 128.685 22.1154 127.837ZM19.1997 127.85C19.1997 127.293 19.5945 126.837 20.0957 126.837C20.5968 126.837 20.9916 127.293 20.9916 127.85C20.9916 128.407 20.5968 128.863 20.0957 128.863C19.5945 128.863 19.1997 128.407 19.1997 127.85Z" fill="#0060B0"/>
<path d="M19.9894 129.555H18.729V131.415C18.729 131.745 18.8961 131.858 19.2301 131.858H23.8163V131.289H19.9894V129.555Z" fill="#0060B0"/>
<path d="M23.8162 126.796V125.125H22.5405V129.809H23.8162V127.378H24.5755V126.796H23.8162Z" fill="#0060B0"/>
<path d="M36.36 125.519H34.9021V125H33.5506V125.519H32.1838V126.089H36.36V125.519Z" fill="#0060B0"/>
<path d="M36.7396 125.113V127.037H35.9955C35.6311 126.594 34.9781 126.29 34.234 126.29C33.095 126.29 32.1838 126.987 32.1838 127.835C32.1838 128.683 33.1102 129.379 34.234 129.379C34.9781 129.379 35.6311 129.075 35.9955 128.632H36.7245V130.202H34.1732V129.556H32.8976V131.404C32.8976 131.734 33.0646 131.847 33.3987 131.847H37.9849V125.113H36.7396ZM34.2795 128.86C33.7784 128.86 33.3835 128.404 33.3835 127.847C33.3835 127.29 33.7784 126.835 34.2795 126.835C34.7806 126.835 35.1755 127.29 35.1755 127.847C35.1755 128.417 34.7806 128.86 34.2795 128.86ZM36.7396 131.278H34.1884V130.784H36.7396V131.278ZM36.7396 128.063H36.2841C36.2993 127.987 36.3144 127.923 36.3144 127.847C36.3144 127.772 36.2993 127.696 36.2841 127.62H36.7396V128.063Z" fill="#0060B0"/>
<mask id="mask0_186_12387" style="mask-type:alpha" maskUnits="userSpaceOnUse" x="0" y="0" width="325" height="148">
<path d="M0 5C0 2.23858 2.23858 0 5 0H320C322.761 0 325 2.23858 325 5V143C325 145.761 322.761 148 320 148H5C2.23858 148 0 145.761 0 143V5Z" fill="#DDEFFF"/>
<path d="M0 5C0 2.23858 2.23858 0 5 0H320C322.761 0 325 2.23858 325 5V143C325 145.761 322.761 148 320 148H5C2.23858 148 0 145.761 0 143V5Z" fill="#DDEFFF"/>
</mask>
<g mask="url(#mask0_186_12387)">
<path d="M221.829 109.073L227.028 110.165L224.09 94.1758L221.829 109.073Z" fill="#5B3C27"/>
<path d="M241.821 74.9348L242.237 74.8828C255.055 76.4947 267.716 79.1206 280.117 82.7084L296.782 87.5701V103.819L261.684 96.9035L261.788 106.263L260.202 119.392H224.896L224.298 98.4115L223.18 96.7216L187.224 103.819V87.5701L204.747 82.5264C216.889 79.0686 229.29 76.5207 241.821 74.9348Z" fill="white"/>
<path d="M226.144 181.737H206.515L203.603 151.033L201.393 181.737H182.103L184.052 147.419C184.52 139.802 187.068 132.574 191.358 126.803V122.383H216.863V126.803C221.152 132.574 223.726 139.802 224.168 147.419L226.144 181.737Z" fill="#D1A843"/>
<path d="M159.172 100.829L163.514 79.25H174.485L174.069 88.8434L176.435 87.5955C180.257 85.5936 184.391 84.2417 188.654 83.5398L204.331 81.0179L216.681 84.8657C221.438 86.3476 224.584 90.8453 224.428 95.7591L224.636 110.162L223.076 109.486L221.958 120.458L222.582 135.823H184.547L185.716 120.458L184.209 104.911L168.765 109.798C167.985 110.11 167.128 110.292 166.218 110.292C161.564 110.318 158.184 105.664 159.172 100.829Z" fill="#FB6E3D"/>
<path d="M183.507 140.375H223.596L222.582 135.852H184.495L183.507 140.375Z" fill="white"/>
<path d="M203.734 152.722V145.312" stroke="#1E1E1E" stroke-width="0.5" stroke-miterlimit="10" stroke-linecap="round" stroke-linejoin="round"/>
<path d="M212.989 70.5387C214.393 71.9427 214.263 74.1525 212.833 75.4525C212.703 75.5564 212.521 75.3745 212.651 75.2705C213.769 74.0485 213.795 72.1766 212.495 71.0847C212.079 70.7467 212.625 70.1748 212.989 70.5387Z" fill="#4F3519"/>
<path d="M196.272 71.0892C195.7 71.5832 195.31 72.3111 195.284 73.0911C195.258 73.871 195.596 74.677 196.116 75.275C196.168 75.327 196.168 75.405 196.116 75.457C196.064 75.509 195.986 75.509 195.934 75.457C195.596 75.145 195.336 74.781 195.128 74.391C194.868 73.897 194.738 73.2991 194.764 72.7271C194.79 71.8952 195.18 71.1152 195.752 70.5172C196.116 70.1793 196.662 70.7512 196.272 71.0892Z" fill="#4F3519"/>
<path d="M210.467 82.6789V68.0938H197.78V82.6789L204.124 94.1703L210.467 82.6789Z" fill="#FFDEDE"/>
<path d="M194.504 69.1836C192.84 69.1836 191.436 70.4835 191.41 72.1474C191.384 73.3174 192.06 74.3573 193.022 74.8513C193.464 75.0853 193.854 75.4232 194.062 75.8652C194.374 76.5412 195.05 77.0091 195.856 77.0091C196.895 77.0091 197.753 76.2032 197.805 75.1633V72.4854C197.805 70.6655 196.324 69.1836 194.504 69.1836Z" fill="#FFDEDE"/>
<path d="M213.743 69.1836C215.407 69.1836 216.811 70.4835 216.837 72.1474C216.863 73.3174 216.187 74.3573 215.225 74.8513C214.783 75.0853 214.393 75.4232 214.185 75.8652C213.873 76.5412 213.197 77.0091 212.391 77.0091C211.351 77.0091 210.493 76.2032 210.441 75.1633V72.4854C210.441 70.6655 211.923 69.1836 213.743 69.1836Z" fill="#FFDEDE"/>
<path d="M204.123 82.9918C199.392 82.9918 195.518 79.118 195.518 74.3863V69.3946C195.518 64.6628 199.392 60.7891 204.123 60.7891C208.855 60.7891 212.729 64.6628 212.729 69.3946V74.3863C212.729 79.118 208.855 82.9918 204.123 82.9918Z" fill="#FFE5E1"/>
<path d="M201.861 73.1123C201.861 73.7327 201.354 74.2403 200.733 74.2403C200.113 74.2403 199.605 73.7327 199.605 73.1123C199.605 72.4919 200.113 71.9844 200.733 71.9844C201.354 71.9844 201.861 72.4919 201.861 73.1123Z" fill="black"/>
<path d="M208.629 73.1123C208.629 73.7327 208.121 74.2403 207.501 74.2403C206.881 74.2403 206.373 73.7327 206.373 73.1123C206.373 72.4919 206.881 71.9844 207.501 71.9844C208.121 71.9844 208.629 72.4919 208.629 73.1123Z" fill="black"/>
<path d="M204.176 73.0859C204.228 73.2679 204.306 73.5019 204.462 73.7099C204.566 73.8399 204.67 73.9699 204.774 74.0479C204.904 74.1519 204.956 74.3339 204.878 74.4639C204.826 74.5678 204.722 74.6458 204.592 74.6718L203.838 74.6458" stroke="#1E1E1E" stroke-width="0.5" stroke-miterlimit="10" stroke-linecap="round"/>
<path d="M206.541 77.6289C206.359 77.8109 205.605 78.4609 204.435 78.5129C203.109 78.5649 202.251 77.7849 202.095 77.6289" stroke="#1E1E1E" stroke-width="0.5" stroke-miterlimit="10" stroke-linecap="round"/>
<path d="M212.807 72.7998C212.547 72.7998 212.313 72.5919 212.287 72.3319L212.131 70.304C212.131 70.044 211.949 69.81 211.715 69.732L211.377 69.628C211.065 69.524 210.857 69.2381 210.857 68.9261V67.8341C210.857 67.0802 210.233 66.4562 209.479 66.4562H198.794C198.04 66.4562 197.416 67.0802 197.416 67.8341V68.9261C197.416 69.2381 197.208 69.524 196.896 69.628L196.558 69.732C196.298 69.81 196.142 70.044 196.142 70.304L195.986 72.3319C195.96 72.5919 195.726 72.8258 195.466 72.8258L195.154 69.576C195.154 64.6623 199.028 60.5545 203.915 60.4246C208.205 60.3206 211.845 63.2584 212.833 67.2102C213.067 68.1721 213.119 69.1601 213.041 70.148L212.807 72.7998Z" fill="#93581C"/>
<path d="M293.558 181.739L285.525 150.541L282.899 181.739H259.734L261.424 150.541C261.918 141.805 264.518 133.46 268.886 126.57V122.566H301.124L301.696 126.44C307.13 133.356 308.845 141.753 310.639 150.541L316.957 181.739H293.558Z" fill="#444444"/>
<path d="M284.953 157.112L286.019 139.875" stroke="#1E1E1E" stroke-width="0.5" stroke-miterlimit="10" stroke-linecap="round" stroke-linejoin="round"/>
<path d="M269.666 126.281H300.032" stroke="#1E1E1E" stroke-width="0.5" stroke-miterlimit="10" stroke-linecap="round" stroke-linejoin="round"/>
<path d="M285.941 66.8022C286.331 66.8022 286.721 66.7502 287.111 66.6202C288.957 66.0743 289.997 65.0343 290.595 64.2284C291.167 64.4364 291.947 64.6184 292.857 64.6184C293.507 64.6184 294.183 64.5144 294.832 64.3324C296.652 63.7864 297.718 62.7465 298.316 61.9405C298.888 62.1485 299.668 62.3305 300.578 62.3305C301.228 62.3305 301.904 62.2265 302.554 62.0445C304.842 61.3685 305.908 59.9126 306.428 59.1067C308.3 58.2747 309.314 56.1688 308.716 54.167C308.196 52.4251 306.584 51.2031 304.764 51.2031C304.374 51.2031 303.984 51.2551 303.594 51.3851C301.748 51.9311 300.708 52.971 300.11 53.777C299.538 53.569 298.758 53.387 297.848 53.387C297.198 53.387 296.522 53.491 295.872 53.673C294.053 54.219 292.987 55.2589 292.389 56.0649C291.817 55.8569 291.037 55.6749 290.127 55.6749C289.477 55.6749 288.801 55.7789 288.151 55.9609C285.863 56.6368 284.797 58.0927 284.277 58.8987C282.405 59.7306 281.391 61.8365 281.989 63.8384C282.509 65.5803 284.121 66.8022 285.941 66.8022Z" fill="#93581C"/>
<path d="M235.608 74.9614V60.3242H248.347V74.9614L242.134 80.941L235.608 74.9614Z" fill="#F99D9B"/>
<path d="M247.151 75.8203V82.6319L242.133 80.942L247.151 75.8203Z" fill="#B6D2FF"/>
<path d="M236.986 75.8203V82.6319L242.16 80.942L236.986 75.8203Z" fill="#B6D2FF"/>
<path d="M251.285 65.9375C252.845 65.9375 254.197 67.1594 254.223 68.7453C254.249 69.8633 253.599 70.8252 252.689 71.2932C252.273 71.5012 251.909 71.8392 251.727 72.2551C251.441 72.9051 250.791 73.3471 250.037 73.3471C249.049 73.3471 248.243 72.5671 248.191 71.6052V69.0573C248.139 67.3414 249.543 65.9375 251.285 65.9375Z" fill="#FFDEDE"/>
<path d="M233.034 65.9375C231.474 65.9375 230.122 67.1594 230.096 68.7453C230.07 69.8633 230.72 70.8252 231.63 71.2932C232.046 71.5012 232.41 71.8392 232.592 72.2551C232.878 72.9051 233.528 73.3471 234.282 73.3471C235.27 73.3471 236.076 72.5671 236.128 71.6052V69.0573C236.18 67.3414 234.776 65.9375 233.034 65.9375Z" fill="#FFDEDE"/>
<path d="M242.159 79.0119C246.657 79.0119 250.323 75.3461 250.323 70.8484V66.1167C250.323 61.6189 246.657 57.9531 242.159 57.9531C237.661 57.9531 233.996 61.6189 233.996 66.1167V70.8484C233.996 75.3461 237.661 79.0119 242.159 79.0119Z" fill="#FFE5E1"/>
<path d="M240.235 74.2422C240.053 74.2422 239.923 74.3982 239.949 74.5802C240.105 75.6721 241.041 76.4781 242.159 76.4781C243.277 76.4781 244.213 75.6461 244.369 74.5802C244.395 74.3982 244.265 74.2422 244.083 74.2422H240.235Z" fill="white"/>
<path d="M244.422 70.0685C244.422 70.6665 244.916 71.1604 245.514 71.1604C246.111 71.1604 246.605 70.6665 246.605 70.0685C246.605 69.4705 246.111 68.9766 245.514 68.9766C244.916 68.9766 244.422 69.4705 244.422 70.0685Z" fill="black"/>
<path d="M238.832 71.1604C238.229 71.1604 237.74 70.6716 237.74 70.0685C237.74 69.4654 238.229 68.9766 238.832 68.9766C239.435 68.9766 239.924 69.4654 239.924 70.0685C239.924 70.6716 239.435 71.1604 238.832 71.1604Z" fill="black"/>
<path d="M242.159 69.1602L241.484 71.5C241.406 71.734 241.588 71.968 241.821 71.968H242.731" stroke="#1E1E1E" stroke-width="0.5" stroke-miterlimit="10" stroke-linecap="round"/>
<path d="M246.033 67.4182C244.655 67.4182 243.537 68.5361 243.537 69.914C243.537 71.2919 244.655 72.4099 246.033 72.4099C247.411 72.4099 248.529 71.2919 248.529 69.914C248.529 68.5361 247.411 67.4182 246.033 67.4182ZM246.033 66.7422C247.775 66.7422 249.205 68.1721 249.205 69.914C249.205 71.6559 247.775 73.0858 246.033 73.0858C244.291 73.0858 242.861 71.6559 242.861 69.914C242.861 68.1721 244.291 66.7422 246.033 66.7422Z" fill="black"/>
<path d="M238.286 67.4182C236.908 67.4182 235.79 68.5361 235.79 69.914C235.79 71.2919 236.908 72.4099 238.286 72.4099C239.664 72.4099 240.782 71.2919 240.782 69.914C240.782 68.5361 239.664 67.4182 238.286 67.4182ZM238.286 66.7422C240.028 66.7422 241.458 68.1721 241.458 69.914C241.458 71.6559 240.028 73.0858 238.286 73.0858C236.544 73.0858 235.114 71.6559 235.114 69.914C235.114 68.1721 236.518 66.7422 238.286 66.7422Z" fill="black"/>
<path d="M241.068 69.5742H243.382V70.2502H241.068V69.5742Z" fill="black"/>
<path d="M237.142 59.4614C238.858 58.3694 240.652 57.8495 242.03 57.9015C242.082 57.7715 242.186 57.6675 242.29 57.5635C243.33 56.6015 246.085 57.9275 248.451 60.5273C250.817 63.1272 251.857 65.987 250.817 66.949C250.687 67.0789 250.531 67.1569 250.323 67.2089V68.3529C250.141 68.2229 249.933 68.0409 249.725 67.7809C249.595 67.5989 249.491 67.4169 249.387 67.2089C248.061 66.949 246.267 65.779 244.629 63.9851C244.525 63.8811 244.447 63.7771 244.343 63.6731C243.823 63.0752 242.94 63.0492 242.394 63.5951C241.822 64.1671 241.172 64.6871 240.418 65.1551C238.494 66.377 236.492 66.897 235.088 66.663C235.01 66.975 234.88 67.3649 234.594 67.7549C234.386 68.0149 234.178 68.1969 233.996 68.3269V66.273C233.762 66.117 233.58 65.935 233.424 65.675C232.54 64.1151 234.178 61.3073 237.142 59.4614Z" fill="black"/>
<path d="M303.386 35.5224L303.984 32.9745L306.038 32.5845V32.4805C306.012 32.4285 305.986 32.3765 305.986 32.3245V32.2985L305.934 32.1686C305.908 32.1166 305.908 32.0906 305.908 32.0386C305.908 32.0386 305.908 32.0386 305.908 32.0126C305.908 31.9866 305.908 31.9866 305.882 31.9606C305.882 31.9346 305.882 31.9086 305.882 31.8826L305.83 31.4666V29.8027C305.83 28.7367 306.766 27.9048 307.832 28.0088L314.435 28.6588C316.047 28.8147 317.321 30.0627 317.503 31.6486C317.529 31.8826 317.529 32.1166 317.503 32.3505L316.567 44.1799V52.2134H306.064V42.074C305.7 41.84 305.336 41.58 305.024 41.268C303.49 39.8381 302.892 37.6022 303.386 35.5224Z" fill="#FFE5E1"/>
<path d="M311.368 29.6743L308.04 29.3103C306.974 29.1803 306.038 30.0122 306.038 31.1042V32.5081V32.7681C306.038 32.8461 306.038 32.9241 306.038 32.9761C306.038 33.0021 306.038 33.0281 306.038 33.0541L306.09 33.288C306.116 33.366 306.116 33.418 306.142 33.496C306.142 33.522 306.168 33.574 306.194 33.6L306.246 33.704C306.246 33.73 306.272 33.782 306.298 33.808C306.324 33.834 306.35 33.886 306.35 33.912C306.376 33.964 306.428 34.042 306.48 34.094" stroke="#1E1E1E" stroke-width="0.5" stroke-miterlimit="10" stroke-linecap="round" stroke-linejoin="round"/>
<path d="M307.156 35.8338C307.078 35.7818 307.026 35.7038 306.974 35.6258C306.922 35.5478 306.87 35.4698 306.818 35.4178C306.61 35.0538 306.506 34.6638 306.506 34.2478V34.1179V33.1039V32.5839C306.506 31.518 307.442 30.686 308.508 30.79L311.783 31.154" stroke="#1E1E1E" stroke-width="0.5" stroke-miterlimit="10" stroke-linecap="round" stroke-linejoin="round"/>
<path d="M310.536 37.2422L311.03 37.3462" stroke="#3D3D3D" stroke-width="0.5" stroke-miterlimit="10" stroke-linecap="round" stroke-linejoin="round"/>
<path d="M308.794 40.9574C308.846 40.6454 308.898 40.3334 309.028 40.0214C309.548 38.4615 310.666 37.6035 311.056 37.3436C311.108 37.0836 311.16 36.8236 311.212 36.5636L310.744 36.8496C310.692 36.9796 310.64 37.1096 310.562 37.2396C310.406 37.4996 310.224 37.7075 309.938 37.8635C309.652 38.0455 309.34 38.1235 309.002 38.1235C308.898 38.1235 308.768 38.1235 308.664 38.0975C308.248 38.0195 307.884 37.8115 307.598 37.4476C307.546 37.3696 307.494 37.2916 307.442 37.2396C307.234 36.8756 307.13 36.4856 307.13 36.0696V34.4057C307.13 34.0938 307.208 33.7818 307.364 33.5478C307.702 32.9238 308.378 32.5338 309.132 32.6378L309.262 32.6638L309.73 32.7158L312.174 33.0018" stroke="#1E1E1E" stroke-width="0.5" stroke-miterlimit="10" stroke-linecap="round" stroke-linejoin="round"/>
<path d="M310.718 36.8474L309.756 35.9375" stroke="black" stroke-width="0.5" stroke-miterlimit="10" stroke-linecap="round" stroke-linejoin="round"/>
<path d="M311.186 36.5625L312.642 36.7705" stroke="#3D3D3D" stroke-width="0.5" stroke-miterlimit="10" stroke-linecap="round" stroke-linejoin="round"/>
<path d="M305.856 34.4574C306.74 34.1455 307.208 33.1315 306.896 32.2476L306.662 31.5976C306.35 30.7137 305.336 30.2457 304.452 30.5577C303.568 30.8697 303.1 31.8836 303.412 32.7675L303.646 33.4175C303.984 34.3275 304.972 34.7954 305.856 34.4574Z" fill="#FFE5E1"/>
<path d="M308.196 41.4487C308.17 40.9027 308.17 39.0308 309.496 37.3409C310.276 36.379 311.186 35.859 311.732 35.625H314.826V41.4487H308.196Z" fill="#FFE5E1"/>
<path d="M308.196 41.4487C308.17 40.9027 308.17 39.0308 309.496 37.3409C310.276 36.379 311.186 35.859 311.732 35.625" stroke="#1E1E1E" stroke-width="0.5" stroke-miterlimit="10" stroke-linecap="round" stroke-linejoin="round"/>
<path d="M303.412 32.7647L303.646 33.4146C303.958 34.2986 304.972 34.7666 305.856 34.4546C306.74 34.1426 307.208 33.1287 306.896 32.2447L306.662 31.5948C306.506 31.1788 306.194 30.8408 305.83 30.6328" fill="#FFE5E1"/>
<path d="M303.412 32.7647L303.646 33.4146C303.958 34.2986 304.972 34.7666 305.856 34.4546C306.74 34.1426 307.208 33.1287 306.896 32.2447L306.662 31.5948C306.506 31.1788 306.194 30.8408 305.83 30.6328" stroke="black" stroke-width="0.5" stroke-miterlimit="10" stroke-linecap="round" stroke-linejoin="round"/>
<path d="M304.504 43.3477H318.413V68.5402C318.413 71.79 317.503 74.9878 315.761 77.7177C311.471 84.5033 303.49 97.2166 302.892 98.1525C302.892 98.1525 288.827 87.5971 287.241 86.4792L304.504 68.7742V43.3477Z" fill="#EDA507"/>
<path d="M287.241 86.5034C287.034 86.3739 287.059 86.3739 287.241 86.5034Z" fill="#6D79B4"/>
<path d="M166.92 64.3495L172.354 63.1016L164.71 75.4249L164.476 67.5473C164.424 66.0394 165.438 64.6875 166.92 64.3495Z" fill="#FFE5E1"/>
<path d="M164.71 75.4301L164.476 67.5526C164.424 66.0446 165.464 64.7187 166.92 64.3807L172.354 63.1328" fill="#FFE5E1"/>
<path d="M164.71 75.4301L164.476 67.5526C164.424 66.0446 165.464 64.7187 166.92 64.3807L172.354 63.1328L175.136 65.3687L177.917 69.8664L176.202 71.5303L176.462 72.9862C176.826 75.1441 175.578 77.224 173.524 77.926L173.264 83.2557L164.32 83.9316L164.71 75.4301Z" fill="#FFE5E1"/>
<path d="M174.953 68.0161C175.109 67.9901 175.265 67.9381 175.395 67.8341L176.201 67.3661C176.903 66.9501 177.241 66.0922 177.033 65.3122L176.617 63.8303C176.357 62.8944 175.369 62.3224 174.433 62.5824L170.378 63.5963C169.624 63.7783 169.156 64.5583 169.338 65.3122C169.52 66.0662 170.274 66.5342 171.054 66.3522L173.627 65.7282C173.237 66.1702 173.159 66.8461 173.471 67.3661C173.783 67.8861 174.381 68.1201 174.953 68.0161ZM175.135 65.3382C175.109 65.3382 175.109 65.3382 175.135 65.3382Z" fill="#FFE5E1"/>
<path d="M174.174 69.0043C174.33 68.9784 174.486 68.9264 174.616 68.8224L175.422 68.3544C176.124 67.9384 176.462 67.0805 176.254 66.3005L175.838 64.8186C175.578 63.8826 174.59 63.3107 173.654 63.5707L169.598 64.5846C168.844 64.7666 168.376 65.5465 168.558 66.3005C168.74 67.0545 169.494 67.5224 170.274 67.3404L172.848 66.7165C172.458 67.1585 172.38 67.8344 172.692 68.3544C173.004 68.8744 173.602 69.1343 174.174 69.0043Z" fill="#FFE5E1"/>
<path d="M173.55 70.02C173.706 69.994 173.862 69.942 173.992 69.838L174.798 69.37C175.5 68.954 175.838 68.0961 175.63 67.3161L175.214 65.8342C174.954 64.8983 173.966 64.3263 173.03 64.5863L168.974 65.6002C168.22 65.7822 167.752 66.5622 167.934 67.3161C168.116 68.0701 168.87 68.5381 169.65 68.3561L172.224 67.7321C171.834 68.1741 171.756 68.85 172.068 69.37C172.38 69.89 172.978 70.15 173.55 70.02Z" fill="#FFE5E1"/>
<path d="M172.484 71.395C172.64 71.369 172.796 71.317 172.926 71.213L173.732 70.745C174.434 70.329 174.772 69.4711 174.564 68.6911L174.148 67.2092C173.888 66.2733 172.9 65.7013 171.964 65.9613L167.908 66.9752C167.154 67.1572 166.686 67.9372 166.868 68.6911C167.05 69.4451 167.804 69.9131 168.584 69.7311L171.158 69.1071C170.768 69.5491 170.69 70.225 171.002 70.745C171.314 71.239 171.912 71.499 172.484 71.395Z" fill="#FFE5E1"/>
<path d="M176.253 67.3714C176.955 66.9554 177.267 66.1234 177.059 65.3435L176.643 63.8616C176.383 62.9256 175.395 62.3536 174.459 62.6136L170.741 63.5236" stroke="#1E1E1E" stroke-width="0.5" stroke-miterlimit="10" stroke-linecap="round" stroke-linejoin="round"/>
<path d="M175.655 68.2257C175.941 67.9917 176.149 67.7057 176.253 67.3677C176.357 67.0297 176.383 66.6657 176.279 66.3278L175.863 64.8458C175.603 63.9099 174.615 63.3379 173.679 63.5719L170.091 64.4559" stroke="#1E1E1E" stroke-width="0.5" stroke-miterlimit="10" stroke-linecap="round" stroke-linejoin="round"/>
<path d="M174.615 69.4988L174.797 69.3948C175.239 69.1348 175.525 68.7188 175.629 68.2509C175.655 68.0689 175.681 67.9129 175.655 67.7309C175.655 67.6009 175.629 67.4969 175.603 67.3669L175.187 65.885C174.927 64.949 173.939 64.3771 173.003 64.6371L169.364 65.521" stroke="#1E1E1E" stroke-width="0.5" stroke-miterlimit="10" stroke-linecap="round" stroke-linejoin="round"/>
<path d="M168.662 66.7714L171.99 65.9394C172.484 65.8094 172.978 65.9134 173.367 66.1474C173.731 66.3814 174.043 66.7454 174.173 67.1874L174.407 67.9673L174.615 68.6433C174.641 68.6953 174.641 68.7473 174.641 68.7993C174.693 69.0073 174.693 69.2413 174.641 69.4492C174.563 69.9692 174.251 70.4372 173.783 70.6972L172.978 71.1651C172.822 71.2431 172.692 71.3211 172.536 71.3471C171.964 71.4511 171.366 71.2171 171.054 70.6712C170.742 70.1252 170.82 69.4752 171.21 69.0333L168.636 69.6572" stroke="#1E1E1E" stroke-width="0.5" stroke-miterlimit="10" stroke-linecap="round" stroke-linejoin="round"/>
<path d="M176.279 70.3591C177.163 70.5671 178.073 69.9951 178.281 69.0852L178.437 68.4352C178.645 67.5513 178.073 66.6413 177.163 66.4333C176.279 66.2253 175.369 66.7973 175.161 67.7073L175.005 68.3572C174.823 69.2672 175.395 70.1511 176.279 70.3591Z" fill="#FFE5E1"/>
<path d="M169.988 69.3945C170.508 69.5505 171.808 70.0185 172.822 71.3184C174.278 73.2163 173.966 75.4002 173.888 75.7642" fill="#FFE5E1"/>
<path d="M171.158 69.0806L171.782 68.2227" stroke="#1E1E1E" stroke-width="0.5" stroke-miterlimit="10" stroke-linecap="round" stroke-linejoin="round"/>
<path d="M170.43 68.0195L170.664 69.1895" stroke="#1E1E1E" stroke-width="0.5" stroke-miterlimit="10" stroke-linecap="round" stroke-linejoin="round"/>
<path d="M177.164 66.4568C176.28 66.2488 175.37 66.8207 175.162 67.7307L175.006 68.3807C174.798 69.2646 175.37 70.1746 176.28 70.3825C177.164 70.5905 178.074 70.0186 178.282 69.1086L178.438 68.4587" stroke="#1E1E1E" stroke-width="0.5" stroke-miterlimit="10" stroke-linecap="round" stroke-linejoin="round"/>
<path d="M169.988 69.3945C170.508 69.5505 171.808 70.0185 172.822 71.3184C173.524 72.2284 173.836 73.2163 173.914 74.0483" fill="#FFE5E1"/>
<path d="M169.988 69.3945C170.508 69.5505 171.808 70.0185 172.822 71.3184C173.524 72.2284 173.836 73.2163 173.914 74.0483" stroke="#262424" stroke-width="0.5" stroke-miterlimit="10" stroke-linecap="round" stroke-linejoin="round"/>
<path d="M166.218 110.317C170.118 110.317 173.289 106.989 173.471 102.803L174.485 79.2227H163.514L159.172 100.801C158.184 105.663 161.564 110.317 166.218 110.317Z" fill="#FB6E3D"/>
<path d="M261.71 96.5172C261.71 90.7975 264.232 86.4298 269.016 84.4019C270.914 83.5959 272.89 82.998 274.944 82.634L284.095 80.9961L291.453 82.192L304.504 68.8028V43.3242H318.413V68.5428C318.413 71.7926 317.503 74.9904 315.761 77.7203C312.459 82.972 306.948 91.7335 304.322 95.8932L301.488 113.156L301.098 122.568H268.912L266.884 109.256L261.086 112.22L261.71 96.5172Z" fill="#C89932"/>
<path d="M280.637 80.7386V67.6094H292.05V80.7386L286.409 86.4843L280.637 80.7386Z" fill="#FFDEDE"/>
<path d="M292.051 80.7344L292.415 82.0343C293.403 85.5701 289.503 88.4559 286.409 86.48L292.051 80.7344Z" fill="white"/>
<path d="M295.457 67.9141C297.017 67.9141 298.369 69.136 298.395 70.7219C298.421 71.8398 297.771 72.8018 296.861 73.2698C296.445 73.4777 296.081 73.8157 295.899 74.2317C295.613 74.8817 294.963 75.3236 294.209 75.3236C293.221 75.3236 292.415 74.5437 292.363 73.5817V71.0339C292.311 69.318 293.715 67.9141 295.457 67.9141Z" fill="#FFDEDE"/>
<path d="M277.206 67.9141C275.646 67.9141 274.294 69.136 274.268 70.7219C274.242 71.8398 274.892 72.8018 275.802 73.2698C276.218 73.4777 276.582 73.8157 276.764 74.2317C277.05 74.8817 277.7 75.3236 278.454 75.3236C279.442 75.3236 280.248 74.5437 280.3 73.5817V71.0339C280.352 69.318 278.948 67.9141 277.206 67.9141Z" fill="#FFDEDE"/>
<path d="M286.331 81.0197C290.829 81.0197 294.494 77.3539 294.494 72.8562V68.1245C294.494 63.6267 290.829 59.9609 286.331 59.9609C281.833 59.9609 278.167 63.6267 278.167 68.1245V72.8562C278.193 77.3539 281.859 81.0197 286.331 81.0197Z" fill="#FFE5E1"/>
<path d="M284.641 75.9769C284.459 76.0029 284.355 76.1589 284.407 76.2889C284.693 77.1729 285.733 77.7188 286.851 77.5369C287.969 77.3809 288.775 76.5489 288.801 75.613C288.801 75.457 288.645 75.353 288.463 75.379L284.641 75.9769Z" fill="white"/>
<path d="M288.713 71.9912C288.713 72.6146 289.218 73.1192 289.841 73.1192C290.464 73.1192 290.969 72.6146 290.969 71.9912C290.969 71.3679 290.464 70.8633 289.841 70.8633C289.218 70.8633 288.713 71.3679 288.713 71.9912Z" fill="black"/>
<path d="M280.817 71.9912C280.817 72.6146 281.322 73.1192 281.945 73.1192C282.569 73.1192 283.073 72.6146 283.073 71.9912C283.073 71.3679 282.569 70.8633 281.945 70.8633C281.322 70.8633 280.817 71.3679 280.817 71.9912Z" fill="black"/>
<path d="M285.845 71.9922C285.817 72.2554 285.79 72.5938 285.678 72.8945C285.595 73.1201 285.511 73.2705 285.428 73.4209C285.317 73.5713 285.289 73.8345 285.4 74.0225C285.484 74.1353 285.595 74.2481 285.706 74.2481L286.457 74.0601" stroke="#1E1E1E" stroke-width="0.5" stroke-miterlimit="10" stroke-linecap="round"/>
<path d="M279.207 62.846C280.741 60.8961 282.535 59.7002 283.809 59.6482C283.861 59.5702 283.913 59.4922 283.965 59.4402C285.213 58.0103 288.775 59.0762 291.92 61.8061C295.066 64.5359 296.626 67.9157 295.378 69.3456C294.13 70.7756 290.568 69.7096 287.423 66.9798C286.825 66.4598 286.279 65.9138 285.785 65.3419C285.707 65.9138 285.551 66.5118 285.265 67.0838C284.251 68.9297 281.729 69.4756 281.443 69.2417C281.183 69.0597 282.899 68.5137 283.783 66.5898C284.043 65.9918 284.199 65.3939 284.277 64.7959C283.939 65.4199 283.523 66.0438 283.029 66.6678C280.949 69.2936 278.401 70.5676 277.361 69.5016C276.295 68.4357 277.127 65.4459 279.207 62.846Z" fill="#93581C"/>
<path d="M277.466 69.0569C275.984 70.5388 276.114 72.8526 277.648 74.2306C277.778 74.3606 277.96 74.1526 277.856 74.0226C276.686 72.7226 276.634 70.7468 278.038 69.6288C278.401 69.2648 277.856 68.6669 277.466 69.0569Z" fill="#93581C"/>
<path d="M293.767 69.7358C294.313 70.2037 294.677 70.9057 294.703 71.6336C294.729 72.3876 294.417 73.1416 293.923 73.7135C293.871 73.7655 293.871 73.8435 293.923 73.8955C293.975 73.9475 294.053 73.9475 294.079 73.8955C294.391 73.6095 294.651 73.2716 294.833 72.8816C295.067 72.4136 295.197 71.8416 295.171 71.3217C295.145 70.5417 294.781 69.7878 294.235 69.2418C293.923 68.8778 293.403 69.4238 293.767 69.7358Z" fill="#93581C"/>
<path d="M280.611 80.5781L280.273 81.8261C279.259 85.4398 283.211 88.4297 286.409 86.4798L280.611 80.5781Z" fill="white"/>
<path d="M245.383 181.735L242.965 147.833L239.767 181.735H216.941L218.605 143.543C218.917 136.55 220.737 129.764 223.83 123.784C224.61 122.276 225.494 120.795 226.43 119.391H258.304C259.422 121.055 260.436 122.796 261.346 124.616C264.18 130.388 265.844 136.862 266.156 143.543L267.82 181.735H245.383Z" fill="#5879FB"/>
<path d="M242.913 148.406V137.98" stroke="#1E1E1E" stroke-width="0.5" stroke-miterlimit="10" stroke-linecap="round" stroke-linejoin="round"/>
<path d="M224.922 119.391H260.228V122.588H224.922V119.391Z" fill="#5879FB"/>
<path d="M265.038 96.1992L266.884 109.276" stroke="#1E1E1E" stroke-width="0.5" stroke-miterlimit="10" stroke-linecap="round" stroke-linejoin="round"/>
<path d="M263.4 101.586L265.636 107.15" stroke="#1E1E1E" stroke-width="0.5" stroke-miterlimit="10" stroke-linecap="round" stroke-linejoin="round"/>
<path d="M214.757 84.2656L209.115 88.4254L210.051 89.9333C210.259 90.2712 210.155 90.7392 209.791 90.9472L204.097 94.197L210.467 82.6797L214.757 84.2656Z" fill="white"/>
<path d="M193.074 82.8165L199.132 88.1202L198.144 89.7581C197.936 90.096 198.04 90.538 198.378 90.746L204.098 94.2038L197.728 82.0625L193.074 82.8165Z" fill="white"/>
<path d="M242.159 80.9414L245.461 82.0593L244.213 85.0492H242.159H240.105L238.702 82.0853L242.159 80.9414Z" fill="#FFE266"/>
<path d="M239.975 84.53L242.107 82.9961L244.213 84.53L245.955 128.39L242.107 131.977L238.26 128.39L239.975 84.53Z" fill="#FFE266"/>
<path d="M285.473 91.3915H286.799C287.085 91.3915 287.319 91.1575 287.319 90.8715V86.4258H285.447V91.3915H285.473Z" fill="white"/>
<path d="M285.993 87.9863C285.993 88.2203 286.175 88.4023 286.409 88.4023C286.643 88.4023 286.825 88.2203 286.825 87.9863C286.825 87.7523 286.643 87.5703 286.409 87.5703C286.175 87.5703 285.993 87.7523 285.993 87.9863Z" stroke="#1E1E1E" stroke-width="0.5" stroke-miterlimit="10" stroke-linecap="round" stroke-linejoin="round"/>
<path d="M285.993 90.1174C285.993 90.3514 286.174 90.5334 286.408 90.5334C286.642 90.5334 286.824 90.3514 286.824 90.1174C286.824 89.8834 286.642 89.7014 286.408 89.7014C286.174 89.6754 285.993 89.8834 285.993 90.1174Z" stroke="#1E1E1E" stroke-width="0.5" stroke-miterlimit="10" stroke-linecap="round" stroke-linejoin="round"/>
<path d="M162.318 85.1503L163.514 79.2227H174.485L174.225 85.1503H162.318Z" fill="white"/>
<path d="M171.99 82.9168C171.588 82.9168 171.262 82.5909 171.262 82.1889C171.262 81.7869 171.588 81.4609 171.99 81.4609C172.392 81.4609 172.718 81.7869 172.718 82.1889C172.718 82.5909 172.392 82.9168 171.99 82.9168Z" stroke="#1E1E1E" stroke-width="0.5" stroke-miterlimit="10" stroke-linecap="round" stroke-linejoin="round"/>
<path d="M174.147 87.0234L173.472 102.805" stroke="#1E1E1E" stroke-width="0.5" stroke-miterlimit="10" stroke-linecap="round" stroke-linejoin="round"/>
<path d="M184.208 104.912L183.507 98.9844" stroke="#1E1E1E" stroke-width="0.5" stroke-miterlimit="10" stroke-linecap="round" stroke-linejoin="round"/>
<path d="M180.959 101.117L183.013 104.263" stroke="#1E1E1E" stroke-width="0.5" stroke-miterlimit="10" stroke-linecap="round" stroke-linejoin="round"/>
<path d="M222.946 109.329L223.648 101.945" stroke="#1E1E1E" stroke-width="0.5" stroke-miterlimit="10" stroke-linecap="round" stroke-linejoin="round"/>
<path d="M206.63 71.9507C207.214 71.5032 207.764 71.3311 208.485 71.3311C208.623 71.3311 208.692 71.1245 208.554 71.0557C208.176 70.8147 207.695 70.8147 207.317 70.9524C206.904 71.0901 206.526 71.3999 206.389 71.813C206.32 71.9163 206.492 72.054 206.63 71.9507Z" fill="#1E1E1E"/>
<path d="M201.846 71.794C201.541 71.008 200.422 70.5979 199.677 71.0421C199.609 71.0763 199.575 71.1788 199.643 71.2472C199.677 71.2814 199.71 71.3155 199.778 71.3155C200.49 71.3497 201.033 71.5206 201.609 71.9307C201.744 72.0674 201.914 71.9307 201.846 71.794Z" fill="#1E1E1E"/>
<path d="M318.673 43.3438C318.829 45.4496 319.011 47.5815 319.167 49.6874C317.295 50.2334 314.591 50.8313 311.341 50.8053C308.196 50.7793 305.622 50.2334 303.776 49.6874L304.27 43.3438H318.673Z" fill="white"/>
<path d="M307.156 47.4569C306.696 47.4569 306.324 47.0844 306.324 46.6249C306.324 46.1654 306.696 45.793 307.156 45.793C307.615 45.793 307.988 46.1654 307.988 46.6249C307.988 47.0844 307.615 47.4569 307.156 47.4569Z" stroke="#1E1E1E" stroke-width="0.5" stroke-miterlimit="10" stroke-linecap="round" stroke-linejoin="round"/>
<path d="M304.322 95.9144L305.076 91.3906" stroke="#1E1E1E" stroke-width="0.5" stroke-miterlimit="10" stroke-linecap="round" stroke-linejoin="round"/>
<path d="M243.771 85.0469H240.391" stroke="#1E1E1E" stroke-width="0.5" stroke-miterlimit="10" stroke-linecap="round"/>
<path d="M37.6445 28.0703H40.8984V31.2695H37.6445V39.2812H33.707V20.5508H37.6445V28.0703ZM17.6289 23.0664H23.0977V20.5234H27.0352V23.0664H32.5039V26.1289H17.6289V23.0664ZM18.8047 31.7617C18.8047 30.8047 19.069 29.9525 19.5977 29.2051C20.1263 28.4577 20.8646 27.8789 21.8125 27.4688C22.7695 27.0495 23.8542 26.8398 25.0664 26.8398C26.2695 26.8398 27.3405 27.0495 28.2793 27.4688C29.2272 27.8789 29.9655 28.4577 30.4941 29.2051C31.0319 29.9434 31.3008 30.7956 31.3008 31.7617C31.3008 32.7188 31.0319 33.5664 30.4941 34.3047C29.9655 35.0339 29.2272 35.599 28.2793 36C27.3405 36.401 26.2695 36.6016 25.0664 36.6016C23.8542 36.6016 22.7695 36.401 21.8125 36C20.8646 35.599 20.1263 35.0339 19.5977 34.3047C19.069 33.5664 18.8047 32.7188 18.8047 31.7617ZM21.1836 37.832H25.1211V42.0703H38.4648V45.2148H21.1836V37.832ZM22.6328 31.7617C22.6328 32.3724 22.847 32.8372 23.2754 33.1562C23.7129 33.4753 24.3099 33.6393 25.0664 33.6484C25.832 33.6393 26.4336 33.4753 26.8711 33.1562C27.3177 32.8372 27.5456 32.3724 27.5547 31.7617C27.5456 31.1419 27.3177 30.668 26.8711 30.3398C26.4245 30.0117 25.8229 29.8477 25.0664 29.8477C24.319 29.8477 23.7266 30.0117 23.2891 30.3398C22.8516 30.668 22.6328 31.1419 22.6328 31.7617ZM61.9816 34.8242H58.0714V32.6641H52.7667V29.5195H58.0714V27.4688H52.9991C52.2335 29.4375 50.9757 31.0918 49.2257 32.4316C47.4757 33.7715 45.2107 34.806 42.4308 35.5352L40.8995 32.4453C46.1769 31.1055 49.0799 28.7266 49.6085 25.3086H42.2941V22.1914H53.9152C53.9152 22.9844 53.8696 23.7135 53.7784 24.3789H58.0714V20.5508H61.9816V34.8242ZM44.9464 40.293C44.9464 39.2539 45.3064 38.347 46.0265 37.5723C46.7465 36.7884 47.7583 36.1868 49.0616 35.7676C50.365 35.3392 51.8735 35.125 53.587 35.125C55.2732 35.125 56.7635 35.3392 58.0577 35.7676C59.3611 36.1868 60.3728 36.7884 61.0929 37.5723C61.8129 38.347 62.173 39.2539 62.173 40.293C62.173 41.3411 61.8129 42.2572 61.0929 43.041C60.3728 43.834 59.3611 44.4401 58.0577 44.8594C56.7635 45.2878 55.2732 45.4974 53.587 45.4883C51.8826 45.4974 50.3741 45.2878 49.0616 44.8594C47.7583 44.4401 46.7465 43.834 46.0265 43.041C45.3064 42.2572 44.9464 41.3411 44.9464 40.293ZM48.8839 40.293C48.8839 40.9948 49.2849 41.5234 50.087 41.8789C50.8982 42.2253 52.0649 42.3984 53.587 42.3984C55.0818 42.3984 56.2257 42.2253 57.0187 41.8789C57.8208 41.5234 58.2264 40.9948 58.2355 40.293C58.2264 39.5911 57.8253 39.0671 57.0323 38.7207C56.2485 38.3652 55.1274 38.1875 53.6691 38.1875C52.1196 38.1875 50.9347 38.3607 50.1144 38.707C49.2941 39.0534 48.8839 39.582 48.8839 40.293ZM77.7327 25.6641H63.8967V22.5742H69.0373V20.332H72.9748V22.5742H77.7327V25.6641ZM65.0178 30.7773C65.0178 29.8932 65.2685 29.1048 65.7698 28.4121C66.2802 27.7194 66.982 27.1816 67.8752 26.7988C68.7776 26.4069 69.803 26.2109 70.9514 26.2109C72.0998 26.2109 73.1298 26.4069 74.0412 26.7988C74.9618 27.1816 75.6819 27.7194 76.2014 28.4121C76.7209 29.1048 76.9853 29.8932 76.9944 30.7773C76.9853 31.6706 76.7209 32.4635 76.2014 33.1562C75.6819 33.849 74.9618 34.3867 74.0412 34.7695C73.1298 35.1523 72.0998 35.3438 70.9514 35.3438C69.803 35.3438 68.7776 35.1523 67.8752 34.7695C66.982 34.3867 66.2802 33.849 65.7698 33.1562C65.2685 32.4635 65.0178 31.6706 65.0178 30.7773ZM67.9709 36.4102H71.9084V38.0234H81.1506V36.4102H85.0608V45.3516H67.9709V36.4102ZM68.6819 30.7773C68.6819 31.3333 68.8824 31.7663 69.2834 32.0762C69.6936 32.377 70.2496 32.5273 70.9514 32.5273C71.6715 32.5273 72.2457 32.377 72.6741 32.0762C73.1116 31.7663 73.3303 31.3333 73.3303 30.7773C73.3303 30.2487 73.1116 29.8431 72.6741 29.5605C72.2457 29.278 71.6715 29.1367 70.9514 29.1367C70.2405 29.1367 69.6845 29.278 69.2834 29.5605C68.8824 29.834 68.6819 30.2396 68.6819 30.7773ZM81.1506 42.3438V40.9219H71.9084V42.3438H81.1506ZM78.0334 30.6953H81.1506V28.8633H78.1155V25.7188H81.1506V20.5234H85.0608V35.5078H81.1506V33.8125H78.0334V30.6953ZM109.781 34.9609H100.265V36.5469C102.416 36.7292 104.084 37.2077 105.269 37.9824C106.454 38.7572 107.046 39.7826 107.046 41.0586C107.046 42.0247 106.695 42.8496 105.994 43.5332C105.292 44.2259 104.285 44.75 102.972 45.1055C101.66 45.4609 100.101 45.6341 98.2962 45.625C96.4642 45.6341 94.8828 45.4609 93.5521 45.1055C92.2305 44.75 91.2188 44.2305 90.517 43.5469C89.8151 42.8633 89.4642 42.0339 89.4642 41.0586C89.4642 39.7826 90.0658 38.7572 91.2689 37.9824C92.472 37.2077 94.1765 36.7292 96.3822 36.5469V34.9609H86.8939V31.8164H109.781V34.9609ZM87.7962 27.9609C89.9291 27.7878 91.6153 27.3958 92.8548 26.7852C94.1035 26.1745 94.9239 25.4635 95.3158 24.6523H88.972V21.5625H107.702V24.6523H101.29C101.682 25.4727 102.498 26.1882 103.738 26.7988C104.986 27.4004 106.709 27.7878 108.906 27.9609L107.538 31.0508C105.169 30.8503 103.204 30.3535 101.646 29.5605C100.096 28.7585 98.9798 27.7513 98.2962 26.5391C97.6127 27.7513 96.5007 28.7585 94.9603 29.5605C93.4291 30.3535 91.4785 30.8503 89.1087 31.0508L87.7962 27.9609ZM93.4837 41.0586C93.4564 42.1341 95.0196 42.6719 98.1732 42.6719C99.8229 42.6719 101.053 42.5397 101.865 42.2754C102.685 42.0111 103.1 41.6055 103.109 41.0586C103.1 40.5117 102.699 40.1107 101.906 39.8555C101.122 39.5911 99.9186 39.4544 98.2962 39.4453C96.6374 39.4544 95.416 39.5911 94.6322 39.8555C93.8574 40.1107 93.4746 40.5117 93.4837 41.0586ZM132.915 42.7266H109.973V39.582H119.352V34.0586H123.262V39.582H132.915V42.7266ZM110.411 31.7344C112.343 31.4518 113.965 30.8913 115.278 30.0527C116.599 29.2051 117.579 28.2161 118.217 27.0859C118.855 25.9466 119.179 24.7891 119.188 23.6133V21.8906H123.399V23.6133C123.39 24.8073 123.704 25.9694 124.342 27.0996C124.98 28.2298 125.965 29.2142 127.295 30.0527C128.626 30.8913 130.271 31.4518 132.231 31.7344L130.563 35.0156C128.357 34.6328 126.471 33.9173 124.903 32.8691C123.335 31.821 122.127 30.5267 121.28 28.9863C120.441 30.5176 119.243 31.8118 117.684 32.8691C116.125 33.9173 114.257 34.6328 112.079 35.0156L110.411 31.7344ZM154.244 45.625H150.252V20.5234H154.244V45.625ZM133.052 38.3242C135.167 37.3307 136.899 36.2415 138.248 35.0566C139.597 33.8717 140.622 32.5592 141.324 31.1191C142.035 29.6699 142.486 28.0247 142.677 26.1836H134.474V23.1211H146.697C146.688 25.8737 146.337 28.3529 145.644 30.5586C144.961 32.7643 143.767 34.7878 142.062 36.6289C140.367 38.4609 138.047 40.0651 135.103 41.4414L133.052 38.3242ZM163.159 21.5625C164.198 21.5625 165.164 21.7493 166.057 22.123C166.951 22.4876 167.703 23.0072 168.313 23.6816C168.933 24.347 169.366 25.1172 169.612 25.9922H173.467V20.5234H177.378V34.0312H173.467V29.082H169.626C169.389 29.9753 168.96 30.7637 168.341 31.4473C167.73 32.1309 166.973 32.6641 166.071 33.0469C165.178 33.4297 164.207 33.6211 163.159 33.6211C161.883 33.6211 160.73 33.3613 159.7 32.8418C158.679 32.3132 157.877 31.5885 157.294 30.668C156.71 29.7383 156.423 28.6992 156.432 27.5508C156.423 26.4206 156.71 25.3997 157.294 24.4883C157.877 23.5677 158.679 22.8522 159.7 22.3418C160.73 21.8223 161.883 21.5625 163.159 21.5625ZM160.151 27.5508C160.151 28.3984 160.425 29.0729 160.971 29.5742C161.518 30.0664 162.234 30.3125 163.118 30.3125C164.002 30.3125 164.717 30.0664 165.264 29.5742C165.811 29.082 166.085 28.4076 166.085 27.5508C166.085 26.7031 165.816 26.0378 165.278 25.5547C164.74 25.0625 164.034 24.8164 163.159 24.8164C162.257 24.8164 161.527 25.0579 160.971 25.541C160.425 26.0241 160.151 26.694 160.151 27.5508ZM160.479 35.0703H164.335V37.2305H173.467V35.0703H177.378V45.3516H160.479V35.0703ZM173.467 42.1797V40.2383H164.335V42.1797H173.467ZM193.129 25.6641H179.293V22.5742H184.433V20.332H188.371V22.5742H193.129V25.6641ZM180.414 30.7773C180.414 29.8932 180.665 29.1048 181.166 28.4121C181.676 27.7194 182.378 27.1816 183.271 26.7988C184.174 26.4069 185.199 26.2109 186.348 26.2109C187.496 26.2109 188.526 26.4069 189.437 26.7988C190.358 27.1816 191.078 27.7194 191.598 28.4121C192.117 29.1048 192.381 29.8932 192.39 30.7773C192.381 31.6706 192.117 32.4635 191.598 33.1562C191.078 33.849 190.358 34.3867 189.437 34.7695C188.526 35.1523 187.496 35.3438 186.348 35.3438C185.199 35.3438 184.174 35.1523 183.271 34.7695C182.378 34.3867 181.676 33.849 181.166 33.1562C180.665 32.4635 180.414 31.6706 180.414 30.7773ZM183.367 36.4102H187.305V38.0234H196.547V36.4102H200.457V45.3516H183.367V36.4102ZM184.078 30.7773C184.078 31.3333 184.278 31.7663 184.68 32.0762C185.09 32.377 185.646 32.5273 186.348 32.5273C187.068 32.5273 187.642 32.377 188.07 32.0762C188.508 31.7663 188.726 31.3333 188.726 30.7773C188.726 30.2487 188.508 29.8431 188.07 29.5605C187.642 29.278 187.068 29.1367 186.348 29.1367C185.637 29.1367 185.081 29.278 184.68 29.5605C184.278 29.834 184.078 30.2396 184.078 30.7773ZM196.547 42.3438V40.9219H187.305V42.3438H196.547ZM193.43 30.6953H196.547V28.8633H193.512V25.7188H196.547V20.5234H200.457V35.5078H196.547V33.8125H193.43V30.6953ZM214.376 30.0391H207.13V32.3359C208.916 32.3268 210.402 32.2812 211.587 32.1992C212.772 32.1172 213.948 31.9622 215.114 31.7344L215.47 34.8789C214.13 35.1159 212.735 35.2708 211.286 35.3438C209.837 35.4167 207.795 35.4622 205.161 35.4805H203.247V27.168H210.438V25.0352H203.22V21.9727H214.376V30.0391ZM206.118 37.0391H223.536V45.625H219.626V40.1836H206.118V37.0391ZM215.743 29.3281H219.626V27.0586H215.743V23.9414H219.626V20.5508H223.536V36.0273H219.626V32.418H215.743V29.3281ZM246.998 39.3086H243.252V20.5234H246.998V39.3086ZM224.932 33.1836C226.563 32.3906 227.748 31.2923 228.486 29.8887C229.225 28.485 229.598 26.9583 229.607 25.3086V22.1641H233.436V25.3086C233.427 26.8854 233.755 28.3073 234.42 29.5742C235.094 30.832 236.188 31.8164 237.701 32.5273L235.541 35.5625C233.746 34.7148 232.415 33.3294 231.549 31.4062C230.601 33.6302 229.115 35.207 227.092 36.1367L224.932 33.1836ZM229.826 37.1211H233.764V42.0703H247.6V45.2148H229.826V37.1211ZM235.377 26.0742H238.166V20.8789H241.885V38.543H238.166V29.2734H235.377V26.0742ZM269.722 45.6797H265.839V32.3359H261.71V29.1914H265.839V20.5234H269.722V45.6797ZM249.597 22.5742H261.327V25.7461H253.534V29.5469H260.48V32.6094H253.534V36.916C255.248 36.8978 256.797 36.8477 258.183 36.7656C259.577 36.6836 260.972 36.5378 262.366 36.3281L262.749 39.4453C261.045 39.7005 259.34 39.8737 257.636 39.9648C255.941 40.056 253.935 40.1107 251.62 40.1289H249.597V22.5742Z" fill="#224CAC"/>
</g>
<rect x="185.865" y="112" width="2.63719" height="2.63719" transform="rotate(45 185.865 112)" fill="white"/>
</svg>
